<svg width="236" height="236" viewBox="0 0 236 236" fill="none" xmlns="http://www.w3.org/2000/svg">
<g clip-path="url(#clip0_422_25402)">
<g filter="url(#filter0_f_422_25402)">
<path fill-rule="evenodd" clip-rule="evenodd" d="M120.827 91.1344C120.827 91.0808 120.827 91.0242 120.827 90.9707L243 88.9969C242.403 77.2201 242.911 83.1026 241.464 71.3525L120.788 90.542C120.779 90.4914 120.767 90.4348 120.758 90.3783C120.743 90.3247 120.731 90.2711 120.716 90.2175L238.57 57.9681C235.014 46.614 236.992 52.2106 232.64 41.1721L120.573 89.8097C120.549 89.7561 120.525 89.7055 120.504 89.6578C120.478 89.6102 120.451 89.5596 120.424 89.512L226.494 28.9457C220.254 18.9044 223.55 23.8045 216.614 14.2395L120.188 89.1547C120.149 89.113 120.117 89.0684 120.078 89.0267C120.042 88.985 120.006 88.9434 119.967 88.9047L207.668 3.96901C199.148 -4.20274 203.545 -0.270184 194.462 -7.82868L119.642 88.6159C119.598 88.5831 119.556 88.5534 119.511 88.5176C119.463 88.4879 119.416 88.4581 119.371 88.4254L183.218 -15.5896C172.864 -21.4334 178.135 -18.7035 167.411 -23.7852L118.989 88.2289C118.935 88.208 118.885 88.1872 118.834 88.1693C118.78 88.1485 118.729 88.1277 118.676 88.1158L154.503 -28.5275C143.021 -31.5997 148.802 -30.275 137.147 -32.5136L118.258 88.0205C118.204 88.0116 118.154 88.0026 118.091 87.9967C118.04 87.9937 117.981 87.9907 117.93 87.9848L123.568 -33.889C111.716 -34.023 117.638 -34.1658 105.857 -33.4722L117.492 87.9907C117.438 87.9967 117.381 87.9996 117.324 88.0086C117.271 88.0175 117.22 88.0265 117.163 88.0384L92.2633 -31.43C80.7097 -28.6079 86.4373 -30.2244 75.0955 -26.5835L116.749 88.1604C116.698 88.1783 116.644 88.1991 116.594 88.2229C116.54 88.2408 116.489 88.2676 116.438 88.2884L62.465 -21.222C52.0271 -15.6283 57.1402 -18.6083 47.1258 -12.2941L116.066 88.5028C116.021 88.5385 115.976 88.5683 115.931 88.601C115.89 88.6367 115.845 88.6724 115.803 88.7052L36.2882 -4.0152C27.5864 3.9571 31.7926 -0.177895 23.6756 8.3898L115.499 89.0148C115.463 89.0535 115.427 89.0952 115.388 89.1428C115.359 89.1845 115.323 89.2291 115.287 89.2768L15.2065 19.1009C8.73317 29.0142 11.7909 23.9444 6.02451 34.3191L115.066 89.6429C115.042 89.6876 115.016 89.7412 114.995 89.7888C114.974 89.8394 114.95 89.893 114.929 89.9436L0.481884 46.8491C-3.3186 58.0991 -1.62121 52.419 -4.61029 63.9131L114.807 90.3574C114.798 90.414 114.786 90.4676 114.777 90.5212C114.768 90.5747 114.762 90.6283 114.753 90.6849L-6.82973 77.36C-7.70079 89.1547 -4.9444 83.1651 -4.98318 94.9955L114.738 91.1225C114.738 91.1761 114.744 91.2326 114.747 91.2862C114.753 91.3428 114.759 91.3994 114.765 91.4529L-6.33751 108.648C-4.24635 120.341 -5.49627 114.545 -2.57581 126.051L114.857 91.8756C114.872 91.9263 114.893 91.9799 114.911 92.0334C114.929 92.0811 114.953 92.1317 114.971 92.1853L1.98537 138.974C6.94331 149.763 4.27939 144.464 9.97117 154.847L115.162 92.5693C115.195 92.6169 115.227 92.6675 115.251 92.7122C115.287 92.7569 115.317 92.8045 115.35 92.8461L17.5841 166.178C25.015 175.338 21.1399 170.896 29.2033 179.514L115.63 93.1706C115.669 93.2064 115.711 93.2451 115.752 93.2808C115.794 93.3165 115.836 93.3522 115.878 93.3909L39.3727 188.597C48.865 195.658 44.0055 192.303 53.978 198.68L116.236 93.635C116.283 93.6648 116.334 93.6886 116.385 93.7184C116.432 93.7422 116.483 93.766 116.534 93.7898L66.1581 204.994C77.1867 209.498 71.6023 207.444 82.9023 211.145L116.94 93.9387C116.996 93.9566 117.044 93.9685 117.098 93.9804C117.157 93.9923 117.211 94.0042 117.265 94.0131L96.2995 214.223C107.984 215.818 102.111 215.223 113.924 216L117.694 94.0578C117.748 94.0578 117.805 94.0578 117.855 94.0578C117.915 94.0578 117.969 94.0518 118.022 94.0488L127.565 215.673C139.367 214.33 133.493 215.211 145.178 213.026L118.449 93.9834C118.506 93.9685 118.556 93.9565 118.61 93.9417C118.661 93.9268 118.715 93.9089 118.768 93.894L158.411 209.29C169.496 205.051 164.031 207.367 174.803 202.339L119.165 93.7243C119.213 93.7005 119.263 93.6737 119.311 93.6469C119.359 93.6172 119.404 93.5904 119.451 93.5636L186.616 195.462C196.255 188.63 191.565 192.211 200.691 184.721L119.797 93.2957C119.839 93.2629 119.881 93.2242 119.917 93.1855C119.959 93.1409 119.997 93.1052 120.039 93.0635L210.404 175.162C218.055 166.154 214.392 170.789 221.387 161.257L120.299 92.7241C120.331 92.6765 120.361 92.6288 120.391 92.5872C120.415 92.5395 120.445 92.4889 120.472 92.4413L228.457 149.536C233.648 138.861 231.244 144.291 235.665 133.243L120.645 92.0453C120.663 91.9918 120.68 91.9412 120.698 91.8846C120.707 91.834 120.728 91.7804 120.74 91.7268L239.581 120.124C241.929 108.517 240.969 114.34 242.472 102.649L120.812 91.3041C120.812 91.2475 120.821 91.1939 120.821 91.1314L120.827 91.1344Z" fill="url(#paint0_radial_422_25402)" fill-opacity="0.8"/>
</g>
</g>
<defs>
<filter id="filter0_f_422_25402" x="-17" y="-44" width="270" height="270" filterUnits="userSpaceOnUse" color-interpolation-filters="sRGB">
<feFlood flood-opacity="0" result="BackgroundImageFix"/>
<feBlend mode="normal" in="SourceGraphic" in2="BackgroundImageFix" result="shape"/>
<feGaussianBlur stdDeviation="5" result="effect1_foregroundBlur_422_25402"/>
</filter>
<radialGradient id="paint0_radial_422_25402" cx="0" cy="0" r="1" gradientUnits="userSpaceOnUse" gradientTransform="translate(116.999 86.4963) scale(121.469 121.219)">
<stop stop-color="#9EB8FF"/>
<stop offset="0.09" stop-color="#9EB8FF" stop-opacity="0.98"/>
<stop offset="0.22" stop-color="#9EB8FF" stop-opacity="0.91"/>
<stop offset="0.36" stop-color="#9EB8FF" stop-opacity="0.8"/>
<stop offset="0.52" stop-color="#9EB8FF" stop-opacity="0.65"/>
<stop offset="0.69" stop-color="#9EB8FF" stop-opacity="0.45"/>
<stop offset="0.86" stop-color="#9EB8FF" stop-opacity="0.21"/>
<stop offset="1" stop-color="#9EB8FF" stop-opacity="0"/>
</radialGradient>
<clipPath id="clip0_422_25402">
<rect width="236" height="236" fill="white"/>
</clipPath>
</defs>
</svg>
