<svg xmlns="http://www.w3.org/2000/svg" width="53" height="53" viewBox="0 0 53 53" fill="none">
  <g clip-path="url(#clip0_422_24944)">
    <ellipse cx="26.8411" cy="27.4395" rx="19.7066" ry="20.3322" transform="rotate(46.5574 26.8411 27.4395)" fill="url(#paint0_linear_422_24944)"/>
    <path d="M41.4904 13.5663C48.9114 21.4024 48.378 33.9689 40.2845 41.6341C32.1909 49.2993 19.614 49.149 12.1926 41.3131C4.77125 33.4769 5.3041 20.9099 13.3978 13.2446C21.4916 5.57942 34.0691 5.73012 41.4904 13.5663Z" stroke="#22A261" stroke-opacity="0.35" stroke-width="0.312803"/>
    <ellipse cx="25.5901" cy="24.9371" rx="19.7066" ry="20.3322" transform="rotate(46.5574 25.5901 24.9371)" fill="white"/>
    <path d="M42.3197 33.8715C42.0069 39.502 27.3052 50.7629 11.5631 39.529C5.24441 31.3748 6.18422 23.241 7.87355 18.496C9.26923 24.128 10.5919 33.3588 17.9164 37.3295C32.31 45.1324 42.6325 28.2411 42.3197 33.8715Z" fill="#E9F4FD"/>
    <path d="M25.5208 9.10994C25.2121 8.37092 27.6426 6.56718 33.8947 9.6202C36.8783 11.8332 36.6979 11.7124 36.4097 12.048C36.1214 12.3836 33.7108 11.6591 30.9652 10.579C25.5698 8.45631 25.8295 9.84896 25.5208 9.10994Z" fill="#EDF7FF"/>
    <path d="M39.6715 11.6018C46.7798 19.1078 46.2924 31.1797 38.4956 38.5638C30.6987 45.948 18.6183 45.7786 11.5096 38.2729C4.40092 30.7669 4.88773 18.6945 12.6847 11.3102C20.4818 3.92606 32.5628 4.09586 39.6715 11.6018Z" stroke="url(#paint1_linear_422_24944)" stroke-width="1.87682"/>
    <path d="M40.126 11.1714C47.4844 18.9415 46.9602 31.4093 38.9261 39.0183C30.8918 46.6273 18.4139 46.4732 11.0551 38.7034C3.69626 30.9332 4.21991 18.4648 12.2543 10.8557C20.2887 3.24675 32.7672 3.40128 40.126 11.1714Z" stroke="url(#paint2_linear_422_24944)" stroke-width="0.625605"/>
    <rect x="6.56738" y="12.7072" width="16.8913" height="9.38408" rx="1.87682" transform="rotate(5.27363 6.56738 12.7072)" fill="url(#paint3_linear_422_24944)"/>
    <rect x="29.6172" y="14.8347" width="16.8913" height="9.38408" rx="1.87682" transform="rotate(5.27363 29.6172 14.8347)" fill="url(#paint4_linear_422_24944)"/>
    <g filter="url(#filter0_d_422_24944)">
      <path fill-rule="evenodd" clip-rule="evenodd" d="M21.6917 12.2183C23.2784 12.3648 24.5423 13.4785 24.9558 14.9234C25.1208 15.5001 25.5249 16.0323 26.121 16.0986C26.2783 16.116 26.4355 16.1301 26.5938 16.1416C27.1918 16.1847 27.6865 15.736 27.9544 15.1996C28.6258 13.8552 30.0727 12.9919 31.6591 13.1383L48.4789 14.6908C49.167 14.7544 49.6733 15.3637 49.6098 16.0518L49.5506 16.693C49.5198 17.0268 49.224 17.2727 48.8901 17.2419C48.473 17.2035 48.1412 17.5933 48.149 18.0122C48.1516 18.1496 48.1468 18.2885 48.1339 18.4286L47.6164 24.0352C47.4259 26.0995 45.5979 27.6185 43.5336 27.4279L30.4515 26.2204C28.3872 26.0299 26.8683 24.202 27.0588 22.1377L27.2581 19.978C27.3196 19.3123 26.7752 18.7502 26.1093 18.6915C25.445 18.6331 24.8271 19.0895 24.7658 19.7535L24.567 21.9077C24.3764 23.972 22.5485 25.4909 20.4842 25.3004L7.40212 24.0929C5.33782 23.9024 3.81884 22.0744 4.00938 20.0101L4.52689 14.4035C4.53981 14.2635 4.56058 14.126 4.58824 13.9914C4.67259 13.581 4.41781 13.137 4.00068 13.0984C3.66681 13.0676 3.42097 12.7718 3.45179 12.4379L3.51097 11.7967C3.57449 11.1086 4.18379 10.6023 4.87189 10.6658L21.6917 12.2183ZM8.43713 12.8797C7.6894 12.8106 7.0053 13.1912 6.64795 13.798C6.64583 13.8015 6.64354 13.8049 6.64147 13.8085C6.64059 13.81 6.64006 13.8117 6.63919 13.8132C6.62432 13.839 6.60945 13.8648 6.59577 13.8914C6.57739 13.9269 6.56016 13.9632 6.54402 14.0001C6.53645 14.0175 6.52904 14.035 6.52199 14.0527C6.50482 14.0954 6.489 14.139 6.47496 14.1833C6.45717 14.2398 6.44203 14.2976 6.42953 14.3564C6.42867 14.3604 6.42802 14.3645 6.42719 14.3685C6.41324 14.4363 6.40227 14.5055 6.39576 14.576L5.87825 20.1826C5.86265 20.3516 5.87186 20.5171 5.89953 20.6767C5.90283 20.6957 5.90447 20.715 5.90835 20.7339C5.91574 20.7698 5.92594 20.8049 5.93537 20.8401C5.94154 20.8632 5.94649 20.8865 5.95352 20.9093C5.96292 20.9396 5.97487 20.969 5.98576 20.9988C5.9959 21.0264 6.00538 21.0543 6.01678 21.0814C6.02511 21.1012 6.03493 21.1203 6.04392 21.1397C6.05974 21.174 6.07564 21.2081 6.09345 21.2412C6.10735 21.2671 6.12291 21.292 6.13798 21.3171C6.15311 21.3424 6.16751 21.368 6.18378 21.3925C6.19826 21.4143 6.21408 21.4351 6.22944 21.4563C6.25038 21.4851 6.27145 21.5138 6.29398 21.5414C6.30866 21.5593 6.3241 21.5766 6.33943 21.594C6.36125 21.6188 6.38321 21.6434 6.40631 21.6671C6.42708 21.6883 6.44878 21.7086 6.47055 21.7288C6.49316 21.7499 6.51607 21.7705 6.53972 21.7904C6.55985 21.8074 6.58058 21.8236 6.60144 21.8397C6.62773 21.86 6.65448 21.8797 6.68189 21.8987C6.70444 21.9142 6.72747 21.929 6.75075 21.9437C6.77625 21.9597 6.80166 21.9759 6.82801 21.9907C6.85615 22.0065 6.88501 22.021 6.91407 22.0354C6.93891 22.0478 6.96381 22.06 6.9893 22.0712C7.01842 22.0841 7.0481 22.0956 7.07802 22.107C7.10488 22.1173 7.13193 22.127 7.1594 22.136C7.2916 22.1795 7.43014 22.2107 7.57462 22.224L20.6567 23.4315C21.6889 23.5268 22.6028 22.7673 22.6981 21.7352L23.2156 16.1286C23.3109 15.0964 22.5514 14.1824 21.5192 14.0872L8.43713 12.8797ZM31.4866 15.0072C30.4544 14.9119 29.5405 15.6714 29.4452 16.7036L28.9277 22.3102C28.8324 23.3423 29.5919 24.2563 30.624 24.3516L43.7061 25.5591C44.7383 25.6543 45.6523 24.8948 45.7475 23.8627L46.265 18.2561C46.2715 18.1855 46.2734 18.1155 46.2721 18.0463C46.272 18.0422 46.2715 18.0381 46.2714 18.034C46.2699 17.9738 46.2656 17.9143 46.2585 17.8554C46.2528 17.8092 46.2452 17.7636 46.2361 17.7184C46.2324 17.6997 46.2283 17.6812 46.2241 17.6627C46.215 17.6235 46.2053 17.5846 46.1937 17.5464C46.1851 17.5177 46.1752 17.4896 46.1654 17.4616C46.1648 17.4599 46.1646 17.4581 46.164 17.4565C46.1626 17.4526 46.1604 17.4489 46.1589 17.445C45.9186 16.7831 45.3163 16.2837 44.5687 16.2147L31.4866 15.0072Z" fill="url(#paint5_linear_422_24944)" shape-rendering="crispEdges"/>
      <path fill-rule="evenodd" clip-rule="evenodd" d="M21.6917 12.2183C23.2784 12.3648 24.5423 13.4785 24.9558 14.9234C25.1208 15.5001 25.5249 16.0323 26.121 16.0986C26.2783 16.116 26.4355 16.1301 26.5938 16.1416C27.1918 16.1847 27.6865 15.736 27.9544 15.1996C28.6258 13.8552 30.0727 12.9919 31.6591 13.1383L48.4789 14.6908C49.167 14.7544 49.6733 15.3637 49.6098 16.0518L49.5506 16.693C49.5198 17.0268 49.224 17.2727 48.8901 17.2419C48.473 17.2035 48.1412 17.5933 48.149 18.0122C48.1516 18.1496 48.1468 18.2885 48.1339 18.4286L47.6164 24.0352C47.4259 26.0995 45.5979 27.6185 43.5336 27.4279L30.4515 26.2204C28.3872 26.0299 26.8683 24.202 27.0588 22.1377L27.2581 19.978C27.3196 19.3123 26.7752 18.7502 26.1093 18.6915C25.445 18.6331 24.8271 19.0895 24.7658 19.7535L24.567 21.9077C24.3764 23.972 22.5485 25.4909 20.4842 25.3004L7.40212 24.0929C5.33782 23.9024 3.81884 22.0744 4.00938 20.0101L4.52689 14.4035C4.53981 14.2635 4.56058 14.126 4.58824 13.9914C4.67259 13.581 4.41781 13.137 4.00068 13.0984C3.66681 13.0676 3.42097 12.7718 3.45179 12.4379L3.51097 11.7967C3.57449 11.1086 4.18379 10.6023 4.87189 10.6658L21.6917 12.2183ZM8.43713 12.8797C7.6894 12.8106 7.0053 13.1912 6.64795 13.798C6.64583 13.8015 6.64354 13.8049 6.64147 13.8085C6.64059 13.81 6.64006 13.8117 6.63919 13.8132C6.62432 13.839 6.60945 13.8648 6.59577 13.8914C6.57739 13.9269 6.56016 13.9632 6.54402 14.0001C6.53645 14.0175 6.52904 14.035 6.52199 14.0527C6.50482 14.0954 6.489 14.139 6.47496 14.1833C6.45717 14.2398 6.44203 14.2976 6.42953 14.3564C6.42867 14.3604 6.42802 14.3645 6.42719 14.3685C6.41324 14.4363 6.40227 14.5055 6.39576 14.576L5.87825 20.1826C5.86265 20.3516 5.87186 20.5171 5.89953 20.6767C5.90283 20.6957 5.90447 20.715 5.90835 20.7339C5.91574 20.7698 5.92594 20.8049 5.93537 20.8401C5.94154 20.8632 5.94649 20.8865 5.95352 20.9093C5.96292 20.9396 5.97487 20.969 5.98576 20.9988C5.9959 21.0264 6.00538 21.0543 6.01678 21.0814C6.02511 21.1012 6.03493 21.1203 6.04392 21.1397C6.05974 21.174 6.07564 21.2081 6.09345 21.2412C6.10735 21.2671 6.12291 21.292 6.13798 21.3171C6.15311 21.3424 6.16751 21.368 6.18378 21.3925C6.19826 21.4143 6.21408 21.4351 6.22944 21.4563C6.25038 21.4851 6.27145 21.5138 6.29398 21.5414C6.30866 21.5593 6.3241 21.5766 6.33943 21.594C6.36125 21.6188 6.38321 21.6434 6.40631 21.6671C6.42708 21.6883 6.44878 21.7086 6.47055 21.7288C6.49316 21.7499 6.51607 21.7705 6.53972 21.7904C6.55985 21.8074 6.58058 21.8236 6.60144 21.8397C6.62773 21.86 6.65448 21.8797 6.68189 21.8987C6.70444 21.9142 6.72747 21.929 6.75075 21.9437C6.77625 21.9597 6.80166 21.9759 6.82801 21.9907C6.85615 22.0065 6.88501 22.021 6.91407 22.0354C6.93891 22.0478 6.96381 22.06 6.9893 22.0712C7.01842 22.0841 7.0481 22.0956 7.07802 22.107C7.10488 22.1173 7.13193 22.127 7.1594 22.136C7.2916 22.1795 7.43014 22.2107 7.57462 22.224L20.6567 23.4315C21.6889 23.5268 22.6028 22.7673 22.6981 21.7352L23.2156 16.1286C23.3109 15.0964 22.5514 14.1824 21.5192 14.0872L8.43713 12.8797ZM31.4866 15.0072C30.4544 14.9119 29.5405 15.6714 29.4452 16.7036L28.9277 22.3102C28.8324 23.3423 29.5919 24.2563 30.624 24.3516L43.7061 25.5591C44.7383 25.6543 45.6523 24.8948 45.7475 23.8627L46.265 18.2561C46.2715 18.1855 46.2734 18.1155 46.2721 18.0463C46.272 18.0422 46.2715 18.0381 46.2714 18.034C46.2699 17.9738 46.2656 17.9143 46.2585 17.8554C46.2528 17.8092 46.2452 17.7636 46.2361 17.7184C46.2324 17.6997 46.2283 17.6812 46.2241 17.6627C46.215 17.6235 46.2053 17.5846 46.1937 17.5464C46.1851 17.5177 46.1752 17.4896 46.1654 17.4616C46.1648 17.4599 46.1646 17.4581 46.164 17.4565C46.1626 17.4526 46.1604 17.4489 46.1589 17.445C45.9186 16.7831 45.3163 16.2837 44.5687 16.2147L31.4866 15.0072Z" stroke="url(#paint6_linear_422_24944)" stroke-width="0.469204" shape-rendering="crispEdges"/>
    </g>
    <mask id="mask0_422_24944" style="mask-type:alpha" maskUnits="userSpaceOnUse" x="3" y="10" width="47" height="18">
      <path fill-rule="evenodd" clip-rule="evenodd" d="M21.7874 12.1414C23.3741 12.2879 24.638 13.4016 25.0515 14.8465C25.2165 15.4232 25.6206 15.9554 26.2167 16.0216C26.374 16.0391 26.5312 16.0532 26.6895 16.0647C27.2875 16.1078 27.7822 15.6591 28.0501 15.1227C28.7215 13.7783 30.1684 12.915 31.7548 13.0614L48.5746 14.6139C49.2627 14.6774 49.769 15.2868 49.7055 15.9749L49.6463 16.6161C49.6155 16.9499 49.3197 17.1958 48.9858 17.165C48.5687 17.1266 48.2369 17.5164 48.2447 17.9353C48.2473 18.0727 48.2425 18.2116 48.2296 18.3517L47.7121 23.9583C47.5216 26.0226 45.6936 27.5416 43.6293 27.351L30.5472 26.1435C28.4829 25.953 26.964 24.1251 27.1545 22.0608L27.3538 19.9011C27.4153 19.2354 26.8709 18.6733 26.205 18.6146C25.5407 18.5562 24.9228 19.0126 24.8615 19.6766L24.6627 21.8308C24.4721 23.8951 22.6442 25.414 20.5799 25.2235L7.49782 24.016C5.43352 23.8254 3.91454 21.9975 4.10508 19.9332L4.62259 14.3266C4.63552 14.1866 4.65628 14.0491 4.68395 13.9145C4.7683 13.5041 4.51351 13.0601 4.09638 13.0215C3.76251 12.9907 3.51668 12.6949 3.54749 12.361L3.60668 11.7198C3.67019 11.0317 4.27949 10.5254 4.96759 10.5889L21.7874 12.1414ZM8.53284 12.8028C7.7851 12.7337 7.101 13.1143 6.74365 13.7211C6.74153 13.7246 6.73924 13.728 6.73717 13.7316C6.7363 13.7331 6.73576 13.7348 6.73489 13.7363C6.72002 13.7621 6.70515 13.7879 6.69148 13.8145C6.67309 13.85 6.65587 13.8863 6.63972 13.9232C6.63215 13.9406 6.62474 13.9581 6.61769 13.9758C6.60053 14.0185 6.58471 14.062 6.57066 14.1064C6.55287 14.1629 6.53773 14.2207 6.52523 14.2795C6.52438 14.2835 6.52372 14.2876 6.52289 14.2916C6.50895 14.3594 6.49797 14.4286 6.49146 14.4991L5.97395 20.1057C5.95836 20.2747 5.96756 20.4402 5.99523 20.5998C5.99854 20.6188 6.00017 20.6381 6.00406 20.657C6.01144 20.6929 6.02165 20.728 6.03107 20.7632C6.03725 20.7863 6.04219 20.8096 6.04923 20.8324C6.05862 20.8627 6.07057 20.8921 6.08146 20.9219C6.0916 20.9495 6.10109 20.9774 6.11249 21.0045C6.12082 21.0243 6.13063 21.0434 6.13962 21.0628C6.15544 21.0971 6.17134 21.1312 6.18915 21.1643C6.20305 21.1902 6.21861 21.2151 6.23368 21.2402C6.24881 21.2655 6.26321 21.2911 6.27949 21.3156C6.29396 21.3374 6.30978 21.3582 6.32514 21.3793C6.34608 21.4082 6.36715 21.4369 6.38968 21.4645C6.40436 21.4824 6.4198 21.4997 6.43513 21.5171C6.45695 21.5419 6.47891 21.5665 6.50201 21.5902C6.52279 21.6114 6.54448 21.6317 6.56626 21.6519C6.58886 21.673 6.61178 21.6936 6.63542 21.7135C6.65555 21.7305 6.67628 21.7467 6.69714 21.7628C6.72344 21.7831 6.75018 21.8028 6.77759 21.8218C6.80014 21.8373 6.82317 21.8521 6.84645 21.8668C6.87196 21.8828 6.89737 21.8989 6.92371 21.9138C6.95185 21.9296 6.98071 21.9441 7.00977 21.9585C7.03461 21.9709 7.05951 21.9831 7.085 21.9943C7.11412 22.0072 7.14381 22.0187 7.17373 22.0301C7.20058 22.0403 7.22764 22.0501 7.25511 22.0591C7.3873 22.1026 7.52585 22.1338 7.67032 22.1471L20.7524 23.3546C21.7846 23.4499 22.6985 22.6904 22.7938 21.6583L23.3113 16.0516C23.4066 15.0195 22.6471 14.1055 21.6149 14.0103L8.53284 12.8028ZM31.5823 14.9303C30.5501 14.835 29.6362 15.5945 29.5409 16.6267L29.0234 22.2333C28.9281 23.2654 29.6876 24.1794 30.7197 24.2746L43.8019 25.4822C44.834 25.5774 45.748 24.8179 45.8432 23.7858L46.3607 18.1792C46.3673 18.1086 46.3691 18.0386 46.3678 17.9694C46.3677 17.9653 46.3672 17.9612 46.3671 17.9571C46.3656 17.8969 46.3613 17.8374 46.3542 17.7785C46.3485 17.7323 46.3409 17.6867 46.3318 17.6415C46.3281 17.6228 46.3241 17.6043 46.3198 17.5858C46.3107 17.5466 46.301 17.5077 46.2894 17.4695C46.2809 17.4408 46.271 17.4127 46.2611 17.3846C46.2605 17.383 46.2603 17.3812 46.2597 17.3796C46.2583 17.3757 46.2561 17.372 46.2546 17.3681C46.0143 16.7062 45.412 16.2068 44.6644 16.1378L31.5823 14.9303Z" fill="url(#paint7_linear_422_24944)"/>
    </mask>
    <g mask="url(#mask0_422_24944)">
      <g opacity="0.23" style="mix-blend-mode:plus-lighter">
        <rect x="23.4893" y="0.418579" width="8.37945" height="34.9842" transform="rotate(38.5734 23.4893 0.418579)" fill="url(#paint8_linear_422_24944)"/>
      </g>
      <g opacity="0.23" style="mix-blend-mode:plus-lighter">
        <rect x="42.0127" y="1.48743" width="4.33779" height="34.9842" transform="rotate(38.5734 42.0127 1.48743)" fill="url(#paint9_linear_422_24944)"/>
      </g>
    </g>
    <g filter="url(#filter1_di_422_24944)">
      <path d="M19.3179 31.2738C19.3556 30.7242 19.968 30.4143 20.4464 30.6874C23.6358 32.5081 25.8821 32.7468 29.364 31.3137C29.8693 31.1057 30.4344 31.4902 30.3969 32.0354C30.3785 32.3034 30.2114 32.5394 29.9628 32.6414C25.7684 34.3623 23.3795 34.1624 19.6626 31.9397C19.431 31.8011 19.2994 31.543 19.3179 31.2738Z" fill="#1A1A1A"/>
    </g>
    <circle cx="47.9498" cy="16.0419" r="0.625606" fill="white"/>
    <circle cx="5.09533" cy="11.9752" r="0.625606" fill="white"/>
  </g>
  <defs>
    <filter id="filter0_d_422_24944" x="3.21484" y="10.4258" width="46.6348" height="18.5041" filterUnits="userSpaceOnUse" color-interpolation-filters="sRGB">
      <feFlood flood-opacity="0" result="BackgroundImageFix"/>
      <feColorMatrix in="SourceAlpha" type="matrix" values="0 0 0 0 0 0 0 0 0 0 0 0 0 0 0 0 0 0 127 0" result="hardAlpha"/>
      <feOffset dy="1.25121"/>
      <feComposite in2="hardAlpha" operator="out"/>
      <feColorMatrix type="matrix" values="0 0 0 0 0.100482 0 0 0 0 0.476018 0 0 0 0 0.283063 0 0 0 1 0"/>
      <feBlend mode="normal" in2="BackgroundImageFix" result="effect1_dropShadow_422_24944"/>
      <feBlend mode="normal" in="SourceGraphic" in2="effect1_dropShadow_422_24944" result="shape"/>
    </filter>
    <filter id="filter1_di_422_24944" x="19.3164" y="30.5865" width="11.082" height="3.82788" filterUnits="userSpaceOnUse" color-interpolation-filters="sRGB">
      <feFlood flood-opacity="0" result="BackgroundImageFix"/>
      <feColorMatrix in="SourceAlpha" type="matrix" values="0 0 0 0 0 0 0 0 0 0 0 0 0 0 0 0 0 0 127 0" result="hardAlpha"/>
      <feOffset dy="0.625605"/>
      <feComposite in2="hardAlpha" operator="out"/>
      <feColorMatrix type="matrix" values="0 0 0 0 0 0 0 0 0 0 0 0 0 0 0 0 0 0 0.06 0"/>
      <feBlend mode="normal" in2="BackgroundImageFix" result="effect1_dropShadow_422_24944"/>
      <feBlend mode="normal" in="SourceGraphic" in2="effect1_dropShadow_422_24944" result="shape"/>
      <feColorMatrix in="SourceAlpha" type="matrix" values="0 0 0 0 0 0 0 0 0 0 0 0 0 0 0 0 0 0 127 0" result="hardAlpha"/>
      <feOffset dy="0.312803"/>
      <feComposite in2="hardAlpha" operator="arithmetic" k2="-1" k3="1"/>
      <feColorMatrix type="matrix" values="0 0 0 0 0.913725 0 0 0 0 0.956863 0 0 0 0 0.992157 0 0 0 0.27 0"/>
      <feBlend mode="normal" in2="shape" result="effect2_innerShadow_422_24944"/>
    </filter>
    <linearGradient id="paint0_linear_422_24944" x1="22.7891" y1="24.8944" x2="47.4039" y2="34.6417" gradientUnits="userSpaceOnUse">
      <stop offset="0.179453" stop-color="#31E488"/>
      <stop offset="0.350576" stop-color="#2DDD83"/>
      <stop offset="0.839311" stop-color="#1B7E4B"/>
      <stop offset="0.927948" stop-color="#1F8B53"/>
    </linearGradient>
    <linearGradient id="paint1_linear_422_24944" x1="12.0393" y1="10.6289" x2="29.4955" y2="43.8812" gradientUnits="userSpaceOnUse">
      <stop stop-color="#4BE998"/>
      <stop offset="1" stop-color="#27C172"/>
    </linearGradient>
    <linearGradient id="paint2_linear_422_24944" x1="12.0393" y1="10.6289" x2="29.4955" y2="43.8812" gradientUnits="userSpaceOnUse">
      <stop stop-color="#CCFFE5"/>
      <stop offset="1" stop-color="#14E479"/>
    </linearGradient>
    <linearGradient id="paint3_linear_422_24944" x1="11.3501" y1="12.4733" x2="15.0131" y2="22.0912" gradientUnits="userSpaceOnUse">
      <stop stop-color="#96D1B3"/>
      <stop offset="1"/>
    </linearGradient>
    <linearGradient id="paint4_linear_422_24944" x1="34.163" y1="14.371" x2="38.0629" y2="24.2188" gradientUnits="userSpaceOnUse">
      <stop stop-color="#96D1B3"/>
      <stop offset="1"/>
    </linearGradient>
    <linearGradient id="paint5_linear_422_24944" x1="24.495" y1="12.4771" x2="28.5827" y2="26.0479" gradientUnits="userSpaceOnUse">
      <stop stop-color="#5FFFAD"/>
      <stop offset="1" stop-color="#00B659"/>
    </linearGradient>
    <linearGradient id="paint6_linear_422_24944" x1="17.9211" y1="10.4115" x2="27.3052" y2="25.1132" gradientUnits="userSpaceOnUse">
      <stop stop-color="#DCFFED"/>
      <stop offset="0.776685" stop-color="#59FFA9" stop-opacity="0.88"/>
    </linearGradient>
    <linearGradient id="paint7_linear_422_24944" x1="24.5908" y1="12.4002" x2="28.6784" y2="25.971" gradientUnits="userSpaceOnUse">
      <stop stop-color="#5FFFAD"/>
      <stop offset="1" stop-color="#00B659"/>
    </linearGradient>
    <linearGradient id="paint8_linear_422_24944" x1="29.2332" y1="16.1323" x2="23.3305" y2="16.5036" gradientUnits="userSpaceOnUse">
      <stop stop-color="#D6FF4E"/>
      <stop offset="0.756648" stop-color="white" stop-opacity="0"/>
    </linearGradient>
    <linearGradient id="paint9_linear_422_24944" x1="44.9862" y1="17.2012" x2="41.9217" y2="17.301" gradientUnits="userSpaceOnUse">
      <stop stop-color="#D6FF4E"/>
      <stop offset="0.756648" stop-color="white" stop-opacity="0"/>
    </linearGradient>
    <clipPath id="clip0_422_24944">
      <rect width="53" height="53" fill="white"/>
    </clipPath>
  </defs>
</svg>
