<svg width="270" height="270" viewBox="0 0 270 270" fill="none" xmlns="http://www.w3.org/2000/svg">
<g filter="url(#filter0_f_422_25403)">
<path fill-rule="evenodd" clip-rule="evenodd" d="M137.827 135.134C137.827 135.081 137.827 135.024 137.827 134.971L260 132.997C259.403 121.22 259.911 127.103 258.464 115.353L137.788 134.542C137.779 134.491 137.767 134.435 137.758 134.378C137.743 134.325 137.731 134.271 137.716 134.217L255.57 101.968C252.014 90.614 253.992 96.2106 249.64 85.1721L137.573 133.81C137.549 133.756 137.525 133.705 137.504 133.658C137.478 133.61 137.451 133.56 137.424 133.512L243.494 72.9457C237.254 62.9044 240.55 67.8045 233.614 58.2395L137.188 133.155C137.149 133.113 137.117 133.068 137.078 133.027C137.042 132.985 137.006 132.943 136.967 132.905L224.668 47.969C216.148 39.7973 220.545 43.7298 211.462 36.1713L136.642 132.616C136.598 132.583 136.556 132.553 136.511 132.518C136.463 132.488 136.416 132.458 136.371 132.425L200.218 28.4104C189.864 22.5666 195.135 25.2965 184.411 20.2148L135.989 132.229C135.935 132.208 135.885 132.187 135.834 132.169C135.78 132.149 135.729 132.128 135.676 132.116L171.503 15.4725C160.021 12.4003 165.802 13.725 154.147 11.4864L135.258 132.021C135.204 132.012 135.154 132.003 135.091 131.997C135.04 131.994 134.981 131.991 134.93 131.985L140.568 10.111C128.716 9.97705 134.638 9.83415 122.857 10.5278L134.492 131.991C134.438 131.997 134.381 132 134.324 132.009C134.271 132.018 134.22 132.026 134.163 132.038L109.263 12.57C97.7097 15.3921 103.437 13.7756 92.0955 17.4165L133.749 132.16C133.698 132.178 133.644 132.199 133.594 132.223C133.54 132.241 133.489 132.268 133.438 132.288L79.465 22.778C69.0271 28.3717 74.1402 25.3917 64.1258 31.7059L133.066 132.503C133.021 132.538 132.976 132.568 132.931 132.601C132.89 132.637 132.845 132.672 132.803 132.705L53.2882 39.9848C44.5864 47.9571 48.7926 43.8221 40.6756 52.3898L132.499 133.015C132.463 133.054 132.427 133.095 132.388 133.143C132.359 133.184 132.323 133.229 132.287 133.277L32.2065 63.1009C25.7332 73.0142 28.7909 67.9444 23.0245 78.3191L132.066 133.643C132.042 133.688 132.016 133.741 131.995 133.789C131.974 133.839 131.95 133.893 131.929 133.944L17.4819 90.8491C13.6814 102.099 15.3788 96.419 12.3897 107.913L131.807 134.357C131.798 134.414 131.786 134.468 131.777 134.521C131.768 134.575 131.762 134.628 131.753 134.685L10.1703 121.36C9.29921 133.155 12.0556 127.165 12.0168 138.996L131.738 135.122C131.738 135.176 131.744 135.233 131.747 135.286C131.753 135.343 131.759 135.399 131.765 135.453L10.6625 152.648C12.7536 164.341 11.5037 158.545 14.4242 170.051L131.857 135.876C131.872 135.926 131.893 135.98 131.911 136.033C131.929 136.081 131.953 136.132 131.971 136.185L18.9854 182.974C23.9433 193.763 21.2794 188.464 26.9712 198.847L132.162 136.569C132.195 136.617 132.227 136.668 132.251 136.712C132.287 136.757 132.317 136.804 132.35 136.846L34.5841 210.178C42.015 219.338 38.1399 214.896 46.2033 223.514L132.63 137.171C132.669 137.206 132.711 137.245 132.752 137.281C132.794 137.317 132.836 137.352 132.878 137.391L56.3727 232.597C65.865 239.658 61.0055 236.303 70.978 242.68L133.236 137.635C133.283 137.665 133.334 137.689 133.385 137.718C133.432 137.742 133.483 137.766 133.534 137.79L83.1581 248.994C94.1867 253.498 88.6023 251.444 99.9023 255.145L133.94 137.939C133.996 137.957 134.044 137.968 134.098 137.98C134.157 137.992 134.211 138.004 134.265 138.013L113.299 258.223C124.984 259.818 119.111 259.223 130.924 260L134.694 138.058C134.748 138.058 134.805 138.058 134.855 138.058C134.915 138.058 134.969 138.052 135.022 138.049L144.565 259.673C156.367 258.33 150.493 259.211 162.178 257.026L135.449 137.983C135.506 137.968 135.556 137.957 135.61 137.942C135.661 137.927 135.715 137.909 135.768 137.894L175.411 253.29C186.496 249.051 181.031 251.367 191.803 246.339L136.165 137.724C136.213 137.701 136.263 137.674 136.311 137.647C136.359 137.617 136.404 137.59 136.451 137.564L203.616 239.462C213.255 232.63 208.565 236.211 217.691 228.721L136.797 137.296C136.839 137.263 136.881 137.224 136.917 137.186C136.959 137.141 136.997 137.105 137.039 137.063L227.404 219.162C235.055 210.154 231.392 214.789 238.387 205.257L137.299 136.724C137.331 136.676 137.361 136.629 137.391 136.587C137.415 136.54 137.445 136.489 137.472 136.441L245.457 193.536C250.648 182.861 248.244 188.291 252.665 177.243L137.645 136.045C137.663 135.992 137.68 135.941 137.698 135.885C137.707 135.834 137.728 135.78 137.74 135.727L256.581 164.124C258.929 152.517 257.969 158.34 259.472 146.649L137.812 135.304C137.812 135.248 137.821 135.194 137.821 135.131L137.827 135.134Z" fill="url(#paint0_radial_422_25403)" fill-opacity="0.8"/>
</g>
<defs>
<filter id="filter0_f_422_25403" x="0" y="0" width="270" height="270" filterUnits="userSpaceOnUse" color-interpolation-filters="sRGB">
<feFlood flood-opacity="0" result="BackgroundImageFix"/>
<feBlend mode="normal" in="SourceGraphic" in2="BackgroundImageFix" result="shape"/>
<feGaussianBlur stdDeviation="5" result="effect1_foregroundBlur_422_25403"/>
</filter>
<radialGradient id="paint0_radial_422_25403" cx="0" cy="0" r="1" gradientUnits="userSpaceOnUse" gradientTransform="translate(133.999 130.496) scale(121.469 121.219)">
<stop stop-color="#9EB8FF"/>
<stop offset="0.09" stop-color="#9EB8FF" stop-opacity="0.98"/>
<stop offset="0.22" stop-color="#9EB8FF" stop-opacity="0.91"/>
<stop offset="0.36" stop-color="#9EB8FF" stop-opacity="0.8"/>
<stop offset="0.52" stop-color="#9EB8FF" stop-opacity="0.65"/>
<stop offset="0.69" stop-color="#9EB8FF" stop-opacity="0.45"/>
<stop offset="0.86" stop-color="#9EB8FF" stop-opacity="0.21"/>
<stop offset="1" stop-color="#9EB8FF" stop-opacity="0"/>
</radialGradient>
</defs>
</svg>
