<svg width="27" height="28" viewBox="0 0 27 28" fill="none" xmlns="http://www.w3.org/2000/svg">
<g filter="url(#filter0_df_422_25431)">
<path d="M11.7 15.2997C12.9124 17.3997 13.2 25.7995 13.2 25.7995C13.5 22.4995 13.8 17.0997 15.3 15.2997C16.7999 13.4998 25.1997 13.1998 25.1997 13.1998C25.1997 13.1998 16.7999 11.9998 15.6 11.0998C14.4 10.1998 13.2 1.80002 13.2 1.80002C13.2 1.80002 12.6 9.59984 11.7 10.7998C10.8001 11.9998 1.80026 13.1998 1.80026 13.1998C1.80026 13.1998 10.4876 13.1998 11.7 15.2997Z" fill="url(#paint0_radial_422_25431)"/>
</g>
<defs>
<filter id="filter0_df_422_25431" x="0.000305625" y="5.7244e-05" width="26.9994" height="27.5994" filterUnits="userSpaceOnUse" color-interpolation-filters="sRGB">
<feFlood flood-opacity="0" result="BackgroundImageFix"/>
<feColorMatrix in="SourceAlpha" type="matrix" values="0 0 0 0 0 0 0 0 0 0 0 0 0 0 0 0 0 0 127 0" result="hardAlpha"/>
<feOffset/>
<feGaussianBlur stdDeviation="0.884615"/>
<feComposite in2="hardAlpha" operator="out"/>
<feColorMatrix type="matrix" values="0 0 0 0 0.984314 0 0 0 0 0.988235 0 0 0 0 0.603922 0 0 0 0.43 0"/>
<feBlend mode="normal" in2="BackgroundImageFix" result="effect1_dropShadow_422_25431"/>
<feBlend mode="normal" in="SourceGraphic" in2="effect1_dropShadow_422_25431" result="shape"/>
<feGaussianBlur stdDeviation="0.0589744" result="effect2_foregroundBlur_422_25431"/>
</filter>
<radialGradient id="paint0_radial_422_25431" cx="0" cy="0" r="1" gradientUnits="userSpaceOnUse" gradientTransform="translate(13.5 13.7997) rotate(90) scale(11.9997 11.6997)">
<stop offset="0.350962" stop-color="#FBFC9A"/>
<stop offset="1" stop-color="#FFB84D"/>
</radialGradient>
</defs>
</svg>
