<svg width="295" height="180" viewBox="0 0 295 180" fill="none" xmlns="http://www.w3.org/2000/svg">
<rect x="1" y="91" width="293" height="88" rx="10" fill="url(#paint0_linear_476_9440)" fill-opacity="0.1"/>
<rect x="1" y="91" width="293" height="88" rx="10" stroke="white" stroke-width="2" stroke-linecap="round" stroke-linejoin="round" stroke-dasharray="6 6"/>
<g filter="url(#filter0_dddd_476_9440)">
<mask id="path-2-inside-1_476_9440" fill="white">
<path d="M48.7116 162H21.7516C19.7516 162 18.8716 161.12 18.8716 159.12V107.28C18.8716 105.28 19.7516 104.4 21.7516 104.4H48.7116C62.1516 104.4 68.3916 109.6 68.3916 120.72V145.68C68.3916 156.8 62.1516 162 48.7116 162ZM37.0316 119.68V146.88H46.5516C49.1116 146.88 50.3116 145.68 50.3116 142.96V123.52C50.3116 120.88 49.1116 119.68 46.5516 119.68H37.0316ZM92.6391 118.8V129.04H98.6391C101.439 129.04 102.159 127.44 102.159 125.28V122.56C102.159 120.4 101.439 118.8 98.6391 118.8H92.6391ZM89.7591 162H77.4391C75.4391 162 74.5591 161.12 74.5591 159.12V107.28C74.5591 105.28 75.4391 104.4 77.4391 104.4H104.079C116.079 104.4 119.839 109.84 119.839 117.76V121.44C119.839 125.92 118.719 129.12 115.359 130.56C121.199 131.2 125.039 135.44 125.039 142.16V159.12C125.039 161.12 124.159 162 122.159 162H109.759C107.759 162 106.879 161.12 106.879 159.12V146.88C106.879 144.48 106.079 143.44 103.839 143.44H92.6391V159.12C92.6391 161.12 91.7591 162 89.7591 162ZM178.422 146.88C178.422 156.64 173.622 163.2 153.622 163.2C133.622 163.2 128.742 156.64 128.742 146.88V119.6C128.742 109.84 133.622 103.2 153.622 103.2C173.622 103.2 178.422 109.84 178.422 119.6V146.88ZM146.902 144C146.902 146.16 147.862 147.76 153.622 147.76C159.462 147.76 160.342 146.16 160.342 144V122.48C160.342 120.4 159.462 118.8 153.622 118.8C147.862 118.8 146.902 120.4 146.902 122.48V144ZM199.886 162H187.486C185.486 162 184.606 161.12 184.606 159.12V107.28C184.606 105.28 185.486 104.4 187.486 104.4H211.966C226.526 104.4 230.846 110.72 230.846 120V130.24C230.846 139.52 226.526 145.84 211.966 145.84H202.766V159.12C202.766 161.12 201.886 162 199.886 162ZM202.606 119.36V131.44H209.806C212.926 131.44 213.566 129.6 213.566 127.52V123.28C213.566 121.2 212.926 119.36 209.806 119.36H202.606ZM261.857 162H236.577C234.577 162 233.697 161.12 233.697 159.12V149.76C233.697 147.76 234.577 146.88 236.577 146.88H258.097C259.457 146.88 260.177 145.84 260.177 144.56C260.177 142.72 259.457 142 258.097 141.84L246.097 140.16C238.577 139.04 233.697 135.84 233.697 126.88V118.48C233.697 109.36 239.857 104.4 250.257 104.4H272.657C274.657 104.4 275.537 105.28 275.537 107.28V116.8C275.537 118.8 274.657 119.68 272.657 119.68H254.017C252.657 119.68 251.857 120.64 251.857 122.08C251.857 123.52 252.657 124.48 254.017 124.64L265.937 126.24C273.457 127.36 278.417 130.56 278.417 139.52V147.92C278.417 157.04 272.177 162 261.857 162Z"/>
</mask>
<path d="M48.7116 162H21.7516C19.7516 162 18.8716 161.12 18.8716 159.12V107.28C18.8716 105.28 19.7516 104.4 21.7516 104.4H48.7116C62.1516 104.4 68.3916 109.6 68.3916 120.72V145.68C68.3916 156.8 62.1516 162 48.7116 162ZM37.0316 119.68V146.88H46.5516C49.1116 146.88 50.3116 145.68 50.3116 142.96V123.52C50.3116 120.88 49.1116 119.68 46.5516 119.68H37.0316ZM92.6391 118.8V129.04H98.6391C101.439 129.04 102.159 127.44 102.159 125.28V122.56C102.159 120.4 101.439 118.8 98.6391 118.8H92.6391ZM89.7591 162H77.4391C75.4391 162 74.5591 161.12 74.5591 159.12V107.28C74.5591 105.28 75.4391 104.4 77.4391 104.4H104.079C116.079 104.4 119.839 109.84 119.839 117.76V121.44C119.839 125.92 118.719 129.12 115.359 130.56C121.199 131.2 125.039 135.44 125.039 142.16V159.12C125.039 161.12 124.159 162 122.159 162H109.759C107.759 162 106.879 161.12 106.879 159.12V146.88C106.879 144.48 106.079 143.44 103.839 143.44H92.6391V159.12C92.6391 161.12 91.7591 162 89.7591 162ZM178.422 146.88C178.422 156.64 173.622 163.2 153.622 163.2C133.622 163.2 128.742 156.64 128.742 146.88V119.6C128.742 109.84 133.622 103.2 153.622 103.2C173.622 103.2 178.422 109.84 178.422 119.6V146.88ZM146.902 144C146.902 146.16 147.862 147.76 153.622 147.76C159.462 147.76 160.342 146.16 160.342 144V122.48C160.342 120.4 159.462 118.8 153.622 118.8C147.862 118.8 146.902 120.4 146.902 122.48V144ZM199.886 162H187.486C185.486 162 184.606 161.12 184.606 159.12V107.28C184.606 105.28 185.486 104.4 187.486 104.4H211.966C226.526 104.4 230.846 110.72 230.846 120V130.24C230.846 139.52 226.526 145.84 211.966 145.84H202.766V159.12C202.766 161.12 201.886 162 199.886 162ZM202.606 119.36V131.44H209.806C212.926 131.44 213.566 129.6 213.566 127.52V123.28C213.566 121.2 212.926 119.36 209.806 119.36H202.606ZM261.857 162H236.577C234.577 162 233.697 161.12 233.697 159.12V149.76C233.697 147.76 234.577 146.88 236.577 146.88H258.097C259.457 146.88 260.177 145.84 260.177 144.56C260.177 142.72 259.457 142 258.097 141.84L246.097 140.16C238.577 139.04 233.697 135.84 233.697 126.88V118.48C233.697 109.36 239.857 104.4 250.257 104.4H272.657C274.657 104.4 275.537 105.28 275.537 107.28V116.8C275.537 118.8 274.657 119.68 272.657 119.68H254.017C252.657 119.68 251.857 120.64 251.857 122.08C251.857 123.52 252.657 124.48 254.017 124.64L265.937 126.24C273.457 127.36 278.417 130.56 278.417 139.52V147.92C278.417 157.04 272.177 162 261.857 162Z" fill="url(#paint1_linear_476_9440)"/>
<path d="M37.0316 119.68V118.68H36.0316V119.68H37.0316ZM37.0316 146.88H36.0316V147.88H37.0316V146.88ZM48.7116 162V161H21.7516V162V163H48.7116V162ZM21.7516 162V161C20.8736 161 20.4697 160.804 20.2687 160.603C20.0677 160.402 19.8716 159.998 19.8716 159.12H18.8716H17.8716C17.8716 160.242 18.1155 161.278 18.8545 162.017C19.5934 162.756 20.6295 163 21.7516 163V162ZM18.8716 159.12H19.8716V107.28H18.8716H17.8716V159.12H18.8716ZM18.8716 107.28H19.8716C19.8716 106.402 20.0677 105.998 20.2687 105.797C20.4697 105.596 20.8736 105.4 21.7516 105.4V104.4V103.4C20.6295 103.4 19.5934 103.644 18.8545 104.383C18.1155 105.122 17.8716 106.158 17.8716 107.28H18.8716ZM21.7516 104.4V105.4H48.7116V104.4V103.4H21.7516V104.4ZM48.7116 104.4V105.4C55.3334 105.4 59.9743 106.687 62.9528 109.159C65.8914 111.599 67.3916 115.348 67.3916 120.72H68.3916H69.3916C69.3916 114.972 67.7718 110.561 64.2303 107.621C60.7288 104.713 55.5297 103.4 48.7116 103.4V104.4ZM68.3916 120.72H67.3916V145.68H68.3916H69.3916V120.72H68.3916ZM68.3916 145.68H67.3916C67.3916 151.052 65.8914 154.801 62.9528 157.241C59.9743 159.713 55.3334 161 48.7116 161V162V163C55.5297 163 60.7288 161.687 64.2303 158.779C67.7718 155.839 69.3916 151.428 69.3916 145.68H68.3916ZM37.0316 119.68H36.0316V146.88H37.0316H38.0316V119.68H37.0316ZM37.0316 146.88V147.88H46.5516V146.88V145.88H37.0316V146.88ZM46.5516 146.88V147.88C47.9693 147.88 49.2256 147.549 50.1098 146.636C50.9873 145.73 51.3116 144.443 51.3116 142.96H50.3116H49.3116C49.3116 144.197 49.0358 144.87 48.6733 145.244C48.3176 145.611 47.6938 145.88 46.5516 145.88V146.88ZM50.3116 142.96H51.3116V123.52H50.3116H49.3116V142.96H50.3116ZM50.3116 123.52H51.3116C51.3116 122.07 50.9839 120.802 50.1043 119.909C49.2213 119.011 47.9694 118.68 46.5516 118.68V119.68V120.68C47.6938 120.68 48.3218 120.949 48.6788 121.311C49.0392 121.678 49.3116 122.33 49.3116 123.52H50.3116ZM46.5516 119.68V118.68H37.0316V119.68V120.68H46.5516V119.68ZM92.6391 118.8V117.8H91.6391V118.8H92.6391ZM92.6391 129.04H91.6391V130.04H92.6391V129.04ZM115.359 130.56L114.965 129.641L111.468 131.14L115.25 131.554L115.359 130.56ZM92.6391 143.44V142.44H91.6391V143.44H92.6391ZM92.6391 118.8H91.6391V129.04H92.6391H93.6391V118.8H92.6391ZM92.6391 129.04V130.04H98.6391V129.04V128.04H92.6391V129.04ZM98.6391 129.04V130.04C100.231 130.04 101.453 129.577 102.233 128.59C102.974 127.654 103.159 126.434 103.159 125.28H102.159H101.159C101.159 126.286 100.984 126.946 100.665 127.35C100.385 127.703 99.8473 128.04 98.6391 128.04V129.04ZM102.159 125.28H103.159V122.56H102.159H101.159V125.28H102.159ZM102.159 122.56H103.159C103.159 121.406 102.974 120.186 102.233 119.25C101.453 118.263 100.231 117.8 98.6391 117.8V118.8V119.8C99.8473 119.8 100.385 120.137 100.665 120.49C100.984 120.894 101.159 121.554 101.159 122.56H102.159ZM98.6391 118.8V117.8H92.6391V118.8V119.8H98.6391V118.8ZM89.7591 162V161H77.4391V162V163H89.7591V162ZM77.4391 162V161C76.5611 161 76.1572 160.804 75.9562 160.603C75.7551 160.402 75.5591 159.998 75.5591 159.12H74.5591H73.5591C73.5591 160.242 73.803 161.278 74.542 162.017C75.2809 162.756 76.317 163 77.4391 163V162ZM74.5591 159.12H75.5591V107.28H74.5591H73.5591V159.12H74.5591ZM74.5591 107.28H75.5591C75.5591 106.402 75.7551 105.998 75.9562 105.797C76.1572 105.596 76.5611 105.4 77.4391 105.4V104.4V103.4C76.317 103.4 75.2809 103.644 74.542 104.383C73.803 105.122 73.5591 106.158 73.5591 107.28H74.5591ZM77.4391 104.4V105.4H104.079V104.4V103.4H77.4391V104.4ZM104.079 104.4V105.4C109.95 105.4 113.588 106.733 115.765 108.83C117.933 110.918 118.839 113.943 118.839 117.76H119.839H120.839C120.839 113.657 119.865 110.002 117.153 107.39C114.45 104.787 110.208 103.4 104.079 103.4V104.4ZM119.839 117.76H118.839V121.44H119.839H120.839V117.76H119.839ZM119.839 121.44H118.839C118.839 123.612 118.565 125.371 117.949 126.726C117.348 128.048 116.408 129.023 114.965 129.641L115.359 130.56L115.753 131.479C117.671 130.657 118.97 129.312 119.769 127.554C120.553 125.829 120.839 123.748 120.839 121.44H119.839ZM115.359 130.56L115.25 131.554C117.949 131.85 120.124 132.966 121.628 134.729C123.136 136.496 124.039 138.992 124.039 142.16H125.039H126.039C126.039 138.608 125.022 135.624 123.15 133.431C121.275 131.234 118.609 129.91 115.468 129.566L115.359 130.56ZM125.039 142.16H124.039V159.12H125.039H126.039V142.16H125.039ZM125.039 159.12H124.039C124.039 159.998 123.843 160.402 123.642 160.603C123.441 160.804 123.037 161 122.159 161V162V163C123.281 163 124.317 162.756 125.056 162.017C125.795 161.278 126.039 160.242 126.039 159.12H125.039ZM122.159 162V161H109.759V162V163H122.159V162ZM109.759 162V161C108.881 161 108.477 160.804 108.276 160.603C108.075 160.402 107.879 159.998 107.879 159.12H106.879H105.879C105.879 160.242 106.123 161.278 106.862 162.017C107.601 162.756 108.637 163 109.759 163V162ZM106.879 159.12H107.879V146.88H106.879H105.879V159.12H106.879ZM106.879 146.88H107.879C107.879 145.614 107.678 144.449 106.958 143.609C106.205 142.73 105.092 142.44 103.839 142.44V143.44V144.44C104.826 144.44 105.233 144.67 105.44 144.911C105.68 145.191 105.879 145.746 105.879 146.88H106.879ZM103.839 143.44V142.44H92.6391V143.44V144.44H103.839V143.44ZM92.6391 143.44H91.6391V159.12H92.6391H93.6391V143.44H92.6391ZM92.6391 159.12H91.6391C91.6391 159.998 91.443 160.402 91.242 160.603C91.0409 160.804 90.637 161 89.7591 161V162V163C90.8811 163 91.9172 162.756 92.6562 162.017C93.3952 161.278 93.6391 160.242 93.6391 159.12H92.6391ZM178.422 146.88H177.422C177.422 151.596 176.269 155.312 172.91 157.909C169.479 160.561 163.558 162.2 153.622 162.2V163.2V164.2C163.685 164.2 170.165 162.559 174.133 159.491C178.174 156.368 179.422 151.924 179.422 146.88H178.422ZM153.622 163.2V162.2C143.686 162.2 137.743 160.561 134.291 157.907C130.912 155.309 129.742 151.592 129.742 146.88H128.742H127.742C127.742 151.928 129.011 156.371 133.072 159.493C137.06 162.559 143.557 164.2 153.622 164.2V163.2ZM128.742 146.88H129.742V119.6H128.742H127.742V146.88H128.742ZM128.742 119.6H129.742C129.742 114.888 130.912 111.149 134.294 108.531C137.746 105.858 143.688 104.2 153.622 104.2V103.2V102.2C143.555 102.2 137.057 103.862 133.069 106.949C129.011 110.091 127.742 114.552 127.742 119.6H128.742ZM153.622 103.2V104.2C163.556 104.2 169.476 105.858 172.907 108.529C176.269 111.146 177.422 114.883 177.422 119.6H178.422H179.422C179.422 114.557 178.174 110.094 174.136 106.951C170.167 103.862 163.687 102.2 153.622 102.2V103.2ZM178.422 119.6H177.422V146.88H178.422H179.422V119.6H178.422ZM146.902 144H145.902C145.902 145.237 146.187 146.573 147.529 147.51C148.756 148.366 150.705 148.76 153.622 148.76V147.76V146.76C150.779 146.76 149.367 146.354 148.674 145.87C148.096 145.467 147.902 144.923 147.902 144H146.902ZM153.622 147.76V148.76C156.574 148.76 158.528 148.367 159.748 147.507C161.086 146.563 161.342 145.218 161.342 144H160.342H159.342C159.342 144.942 159.157 145.477 158.595 145.873C157.915 146.353 156.509 146.76 153.622 146.76V147.76ZM160.342 144H161.342V122.48H160.342H159.342V144H160.342ZM160.342 122.48H161.342C161.342 121.291 161.08 119.968 159.742 119.039C158.525 118.193 156.576 117.8 153.622 117.8V118.8V119.8C156.507 119.8 157.918 120.207 158.601 120.681C159.163 121.072 159.342 121.589 159.342 122.48H160.342ZM153.622 118.8V117.8C150.703 117.8 148.759 118.195 147.535 119.036C146.194 119.958 145.902 121.272 145.902 122.48H146.902H147.902C147.902 121.608 148.09 121.082 148.668 120.684C149.364 120.205 150.78 119.8 153.622 119.8V118.8ZM146.902 122.48H145.902V144H146.902H147.902V122.48H146.902ZM202.766 145.84V144.84H201.766V145.84H202.766ZM202.606 119.36V118.36H201.606V119.36H202.606ZM202.606 131.44H201.606V132.44H202.606V131.44ZM199.886 162V161H187.486V162V163H199.886V162ZM187.486 162V161C186.608 161 186.204 160.804 186.003 160.603C185.802 160.402 185.606 159.998 185.606 159.12H184.606H183.606C183.606 160.242 183.85 161.278 184.589 162.017C185.328 162.756 186.364 163 187.486 163V162ZM184.606 159.12H185.606V107.28H184.606H183.606V159.12H184.606ZM184.606 107.28H185.606C185.606 106.402 185.802 105.998 186.003 105.797C186.204 105.596 186.608 105.4 187.486 105.4V104.4V103.4C186.364 103.4 185.328 103.644 184.589 104.383C183.85 105.122 183.606 106.158 183.606 107.28H184.606ZM187.486 104.4V105.4H211.966V104.4V103.4H187.486V104.4ZM211.966 104.4V105.4C219.128 105.4 223.545 106.958 226.179 109.447C228.798 111.922 229.846 115.499 229.846 120H230.846H231.846C231.846 115.221 230.734 110.998 227.553 107.993C224.387 105.002 219.364 103.4 211.966 103.4V104.4ZM230.846 120H229.846V130.24H230.846H231.846V120H230.846ZM230.846 130.24H229.846C229.846 134.741 228.798 138.318 226.179 140.793C223.545 143.282 219.128 144.84 211.966 144.84V145.84V146.84C219.364 146.84 224.387 145.238 227.553 142.247C230.734 139.242 231.846 135.019 231.846 130.24H230.846ZM211.966 145.84V144.84H202.766V145.84V146.84H211.966V145.84ZM202.766 145.84H201.766V159.12H202.766H203.766V145.84H202.766ZM202.766 159.12H201.766C201.766 159.998 201.57 160.402 201.369 160.603C201.168 160.804 200.764 161 199.886 161V162V163C201.008 163 202.044 162.756 202.783 162.017C203.522 161.278 203.766 160.242 203.766 159.12H202.766ZM202.606 119.36H201.606V131.44H202.606H203.606V119.36H202.606ZM202.606 131.44V132.44H209.806V131.44V130.44H202.606V131.44ZM209.806 131.44V132.44C211.567 132.44 212.853 131.911 213.651 130.867C214.404 129.88 214.566 128.625 214.566 127.52H213.566H212.566C212.566 128.495 212.408 129.2 212.061 129.653C211.759 130.049 211.164 130.44 209.806 130.44V131.44ZM213.566 127.52H214.566V123.28H213.566H212.566V127.52H213.566ZM213.566 123.28H214.566C214.566 122.175 214.404 120.92 213.651 119.933C212.853 118.889 211.567 118.36 209.806 118.36V119.36V120.36C211.164 120.36 211.759 120.751 212.061 121.147C212.408 121.6 212.566 122.305 212.566 123.28H213.566ZM209.806 119.36V118.36H202.606V119.36V120.36H209.806V119.36ZM258.097 141.84L257.959 142.83L257.969 142.832L257.98 142.833L258.097 141.84ZM246.097 140.16L245.95 141.149L245.959 141.15L246.097 140.16ZM254.017 124.64L254.15 123.649L254.142 123.648L254.134 123.647L254.017 124.64ZM265.937 126.24L266.085 125.251L266.077 125.25L266.07 125.249L265.937 126.24ZM261.857 162V161H236.577V162V163H261.857V162ZM236.577 162V161C235.699 161 235.295 160.804 235.094 160.603C234.893 160.402 234.697 159.998 234.697 159.12H233.697H232.697C232.697 160.242 232.941 161.278 233.68 162.017C234.419 162.756 235.455 163 236.577 163V162ZM233.697 159.12H234.697V149.76H233.697H232.697V159.12H233.697ZM233.697 149.76H234.697C234.697 148.882 234.893 148.478 235.094 148.277C235.295 148.076 235.699 147.88 236.577 147.88V146.88V145.88C235.455 145.88 234.419 146.124 233.68 146.863C232.941 147.602 232.697 148.638 232.697 149.76H233.697ZM236.577 146.88V147.88H258.097V146.88V145.88H236.577V146.88ZM258.097 146.88V147.88C259.056 147.88 259.864 147.501 260.415 146.84C260.948 146.201 261.177 145.378 261.177 144.56H260.177H259.177C259.177 145.022 259.047 145.359 258.879 145.56C258.73 145.739 258.498 145.88 258.097 145.88V146.88ZM260.177 144.56H261.177C261.177 143.532 260.98 142.623 260.423 141.939C259.849 141.234 259.04 140.944 258.214 140.847L258.097 141.84L257.98 142.833C258.514 142.896 258.745 143.046 258.872 143.201C259.015 143.377 259.177 143.748 259.177 144.56H260.177ZM258.097 141.84L258.236 140.85L246.236 139.17L246.097 140.16L245.959 141.15L257.959 142.83L258.097 141.84ZM246.097 140.16L246.245 139.171C242.565 138.623 239.708 137.587 237.767 135.736C235.859 133.917 234.697 131.171 234.697 126.88H233.697H232.697C232.697 131.549 233.975 134.883 236.387 137.184C238.766 139.453 242.109 140.577 245.95 141.149L246.097 140.16ZM233.697 126.88H234.697V118.48H233.697H232.697V126.88H233.697ZM233.697 118.48H234.697C234.697 114.161 236.145 110.944 238.719 108.786C241.32 106.607 245.201 105.4 250.257 105.4V104.4V103.4C244.913 103.4 240.514 104.673 237.435 107.254C234.329 109.856 232.697 113.679 232.697 118.48H233.697ZM250.257 104.4V105.4H272.657V104.4V103.4H250.257V104.4ZM272.657 104.4V105.4C273.535 105.4 273.939 105.596 274.14 105.797C274.341 105.998 274.537 106.402 274.537 107.28H275.537H276.537C276.537 106.158 276.293 105.122 275.554 104.383C274.815 103.644 273.779 103.4 272.657 103.4V104.4ZM275.537 107.28H274.537V116.8H275.537H276.537V107.28H275.537ZM275.537 116.8H274.537C274.537 117.678 274.341 118.082 274.14 118.283C273.939 118.484 273.535 118.68 272.657 118.68V119.68V120.68C273.779 120.68 274.815 120.436 275.554 119.697C276.293 118.958 276.537 117.922 276.537 116.8H275.537ZM272.657 119.68V118.68H254.017V119.68V120.68H272.657V119.68ZM254.017 119.68V118.68C253.087 118.68 252.26 119.017 251.677 119.679C251.108 120.325 250.857 121.182 250.857 122.08H251.857H252.857C252.857 121.538 253.007 121.195 253.178 121.001C253.335 120.823 253.588 120.68 254.017 120.68V119.68ZM251.857 122.08H250.857C250.857 122.985 251.111 123.828 251.662 124.484C252.218 125.145 253.004 125.528 253.9 125.633L254.017 124.64L254.134 123.647C253.67 123.592 253.376 123.415 253.193 123.196C253.004 122.972 252.857 122.615 252.857 122.08H251.857ZM254.017 124.64L253.884 125.631L265.804 127.231L265.937 126.24L266.07 125.249L254.15 123.649L254.017 124.64ZM265.937 126.24L265.79 127.229C269.469 127.777 272.349 128.813 274.31 130.667C276.238 132.488 277.417 135.233 277.417 139.52H278.417H279.417C279.417 134.847 278.116 131.512 275.684 129.213C273.286 126.947 269.925 125.823 266.085 125.251L265.937 126.24ZM278.417 139.52H277.417V147.92H278.417H279.417V139.52H278.417ZM278.417 147.92H277.417C277.417 152.235 275.952 155.453 273.366 157.612C270.754 159.794 266.872 161 261.857 161V162V163C267.163 163 271.56 161.726 274.648 159.148C277.763 156.547 279.417 152.725 279.417 147.92H278.417Z" fill="#FFAE00" fill-opacity="0.75" mask="url(#path-2-inside-1_476_9440)"/>
</g>
<g filter="url(#filter1_ddd_476_9440)">
<path d="M221.018 84.746C220.864 84.9001 220.386 85.6706 219.585 87.0576C218.814 88.4755 217.982 89.8933 217.088 91.3111C216.195 92.7598 215.085 94.1314 213.76 95.4259C212.465 96.7204 211.371 97.4139 210.477 97.5064C209.614 97.6297 209.059 97.6913 208.813 97.6913C205.977 97.6913 204.559 96.2581 204.559 93.3916C204.559 90.032 206.301 86.1021 209.783 81.6021C211.109 79.9068 212.773 78.0729 214.777 76.1003C216.78 74.1585 217.874 73.0489 218.059 72.7715C218.244 72.5249 220.556 68.2098 224.994 59.8261C222.035 63.0624 219.292 65.6977 216.765 67.732C214.237 69.7355 211.802 70.8605 209.46 71.1071H209.136C207.934 71.1071 206.747 70.7064 205.576 69.905C204.405 69.1344 203.819 67.7628 203.819 65.7902C203.819 62.8621 204.605 60.0264 206.177 57.2833C206.732 56.3278 207.688 54.7096 209.044 52.4287C210.431 50.1479 211.71 47.9441 212.881 45.8173C213.991 44.1221 215.131 42.1495 216.302 39.8994C217.474 37.6494 218.367 36.0467 218.984 35.0912C219.6 34.1048 220.186 33.6117 220.741 33.6117C221.296 33.6117 222.005 33.9661 222.868 34.6751C223.761 35.3532 224.208 36.1699 224.208 37.1254C224.208 38.0809 222.189 42.2265 218.152 49.5623C214.114 56.898 212.095 61.0744 212.095 62.0915C212.095 62.3381 212.218 62.4614 212.465 62.4614C213.297 62.4614 215.131 61.2902 217.967 58.9477C220.833 56.5743 223.993 53.5383 227.445 49.8397C231.297 45.7403 234.318 41.9954 236.506 38.6049C236.784 38.1734 237 37.8498 237.154 37.634C237.339 37.3874 237.554 37.0792 237.801 36.7093C238.078 36.3086 238.294 36.0004 238.448 35.7847C238.633 35.5689 238.834 35.3223 239.049 35.0449C239.296 34.7367 239.512 34.5055 239.697 34.3514C239.881 34.1973 240.082 34.0432 240.298 33.8891C240.637 33.5809 241.006 33.4268 241.407 33.4268C241.839 33.4268 242.471 33.5192 243.303 33.7042C244.166 33.8891 244.674 34.0894 244.828 34.3052C245.013 34.521 245.198 34.7213 245.383 34.9062C245.691 35.2453 245.846 35.5689 245.846 35.8771C245.846 36.1545 245.722 36.5398 245.476 37.033C245.229 37.4953 243.796 39.9303 241.176 44.3379C233.47 57.3449 228.169 66.8382 225.272 72.8177C229.957 68.8725 236.553 63.0316 245.06 55.2952C245.399 55.0178 245.738 54.8791 246.077 54.8791C247.032 54.8791 247.51 56.3432 247.51 59.2713C247.51 60.1343 247.356 60.7045 247.048 60.9819C237.832 68.0711 229.155 75.9924 221.018 84.746Z" fill="white"/>
<path d="M220.926 0C222.406 0 223.7 0.446924 224.81 1.34077C225.95 2.2038 226.52 3.49834 226.52 5.22439C226.52 6.95044 225.565 9.6628 223.654 13.3615C221.743 17.0293 219.447 20.7897 216.765 24.6425C214.084 28.4644 211.048 32.533 207.657 36.8481C202.294 43.6907 197.147 49.8397 192.215 55.2953C192.184 55.6651 192.046 56.3587 191.799 57.3758C191.583 58.3621 191.475 59.3638 191.475 60.381C191.475 61.3981 191.938 62.3228 192.862 63.155C193.818 63.9564 194.989 64.357 196.376 64.357C197.763 64.357 199.243 63.8639 200.815 62.8776C202.417 61.8913 203.804 60.7971 204.976 59.595C208.058 56.4203 209.969 54.8329 210.709 54.8329C211.448 54.8329 211.818 55.958 211.818 58.208V59.1327C211.818 60.3347 211.602 61.2132 211.171 61.768C208.582 64.9427 205.669 67.316 202.433 68.8879C199.196 70.429 196.13 71.1996 193.232 71.1996C190.335 71.1996 188.131 70.3212 186.621 68.5643C185.111 66.7766 184.355 64.3416 184.355 61.2594C184.355 55.249 185.958 48.1907 189.164 40.0845C192.4 31.9474 196.037 25.0277 200.075 19.3256C209.167 6.44187 216.118 0 220.926 0ZM218.846 7.67476C218.846 7.21243 218.692 6.98126 218.383 6.98126C217.305 6.98126 214.469 10.0635 209.876 16.228C205.284 22.3924 201.955 27.3086 199.89 30.9765C197.856 34.6443 195.929 39.2523 194.111 44.8003C197.748 40.4851 202.772 33.7659 209.183 24.6425C215.625 15.4882 218.846 9.83233 218.846 7.67476Z" fill="white"/>
<path d="M193.463 18.6321C193.463 20.389 192.646 22.1613 191.013 23.949C189.379 25.7059 187.668 26.5843 185.881 26.5843C184.124 26.5843 183.245 25.6596 183.245 23.8103C183.245 21.9609 184.016 20.2041 185.557 18.5397C187.129 16.8444 188.855 15.9968 190.735 15.9968C191.568 15.9968 192.23 16.228 192.723 16.6903C193.217 17.1527 193.463 17.7999 193.463 18.6321ZM185.973 58.994C185.973 59.9187 185.881 60.5813 185.696 60.982C184.186 64.0643 181.781 66.5609 178.483 68.4719C175.185 70.352 172.319 71.2921 169.884 71.2921C167.449 71.2921 165.353 70.4753 163.596 68.8417C161.839 67.2081 160.961 65.5437 160.961 63.8485C160.961 62.1533 161.809 59.6875 163.504 56.4511C165.199 53.2148 166.894 50.225 168.589 47.4818C170.285 44.7387 171.132 43.2592 171.132 43.0434C171.132 42.7969 170.809 42.3345 170.161 41.6564C169.545 40.9783 169.237 40.4852 169.237 40.177C169.237 39.8379 169.869 38.9903 171.132 37.6341C172.427 36.2471 173.983 34.8909 175.802 33.5656C177.651 32.2094 179.054 31.5313 180.009 31.5313C180.995 31.5313 181.874 31.9628 182.644 32.8258C183.415 33.6888 183.8 34.4748 183.8 35.1837C183.8 35.8926 180.132 42.5657 172.797 55.2028C172.704 55.3878 172.442 55.8039 172.011 56.4511C171.61 57.0676 171.286 57.5916 171.04 58.0231C170.824 58.4238 170.562 58.9169 170.254 59.5026C169.637 60.7355 169.329 61.768 169.329 62.6002C169.329 63.6482 170.038 64.1721 171.456 64.1721C172.874 64.1721 174.338 63.6944 175.848 62.7389C177.389 61.7526 178.715 60.6738 179.824 59.5026C182.722 56.3895 184.371 54.833 184.771 54.833C185.573 54.833 185.973 56.22 185.973 58.994Z" fill="white"/>
<path d="M160.083 34.259C162.426 34.259 163.597 35.0604 163.597 36.6632C163.597 37.5262 163.396 38.1581 162.996 38.5587C162.595 38.9594 161.732 40.3002 160.407 42.5811C159.112 44.8311 157.663 47.7284 156.061 51.273C154.489 54.7867 153.472 57.7919 153.009 60.2885C152.917 60.5967 152.871 61.0282 152.871 61.583C152.871 63.2783 153.333 64.1259 154.258 64.1259C155.182 64.1259 156.276 63.6944 157.54 62.8313C158.804 61.9375 159.929 60.9974 160.915 60.0111C161.902 58.994 162.857 57.9614 163.782 56.9134C164.737 55.8655 165.307 55.2645 165.492 55.1103C165.677 54.9562 165.955 54.8792 166.325 54.8792C166.91 54.8792 167.265 55.3261 167.388 56.2199C167.511 57.1138 167.573 58.0385 167.573 58.994C167.573 59.9494 167.48 60.6121 167.295 60.982C166.402 62.7389 164.429 64.8502 161.378 67.316C158.357 69.7818 155.598 71.0147 153.102 71.0147C150.636 71.0147 148.817 70.2595 147.646 68.7492C146.475 67.2389 145.889 65.5745 145.889 63.756C145.889 61.9067 146.198 60.2885 146.814 58.9015C144.256 62.2303 141.312 65.0505 137.983 67.3622C134.685 69.6739 131.988 70.8297 129.893 70.8297C127.797 70.8297 126.086 70.1979 124.761 68.9342C123.065 67.3622 122.218 65.1892 122.218 62.4152C122.218 59.6104 122.834 56.8056 124.067 54.0007C125.331 51.1651 126.98 48.5914 129.014 46.2797C131.048 43.9372 133.283 41.8105 135.718 39.8995C140.834 35.8926 145.55 33.8892 149.865 33.8892C151.53 33.8892 152.886 34.1666 153.934 34.7214C154.982 35.2762 155.645 35.9697 155.922 36.8019C156.662 35.6923 157.278 34.9988 157.771 34.7214C158.295 34.4131 159.066 34.259 160.083 34.259ZM153.934 39.3909C148.663 39.3909 143.208 42.3191 137.567 48.1753C135.564 50.2712 133.715 52.7833 132.019 55.7114C130.355 58.6395 129.523 60.643 129.523 61.7217C129.523 62.8005 129.831 63.3399 130.447 63.3399C131.31 63.3399 133.715 61.6447 137.66 58.2542C141.605 54.8329 144.225 52.3209 145.519 50.7182C146.937 48.9305 149.742 45.1547 153.934 39.3909Z" fill="white"/>
<path d="M69.8351 24.0877L68.8642 23.949H68.6792C67.9087 23.949 67.1073 23.6407 66.2751 23.0243C65.4737 22.4079 65.073 21.3137 65.073 19.7417C65.073 18.1698 65.9206 16.3821 67.6159 14.3786C69.3419 12.3752 71.669 10.5413 74.5971 8.87684C77.5252 7.18162 81.1623 5.79461 85.5082 4.71583C89.885 3.63705 94.4929 3.09766 99.332 3.09766C109.226 3.09766 116.947 5.05487 122.495 8.96931C128.074 12.8529 130.863 17.9078 130.863 24.1339C130.863 28.0175 130 31.9011 128.274 35.7847C126.548 39.6684 124.236 43.2592 121.339 46.5572C118.442 49.8243 115.036 52.8911 111.122 55.7576C107.207 58.5933 103.108 61.0128 98.8235 63.0163C89.5768 67.2698 80.7308 69.3965 72.2854 69.3965C68.1244 69.3965 65.5045 69.0575 64.4257 68.3794C64.0251 68.1636 63.6244 67.84 63.2237 67.4085C62.8538 66.9461 62.561 66.6379 62.3452 66.4838C61.7596 66.1139 61.4668 65.328 61.4668 64.1259C61.4668 62.893 61.5901 61.7834 61.8367 60.7971C62.7613 57.4991 66.9069 50.3483 74.2735 39.3447C81.6708 28.3103 87.8507 19.4181 92.8131 12.668C93.1522 12.2057 94.8936 11.8666 98.0375 11.6509C99.332 11.6509 100.226 11.7433 100.719 11.9283C101.212 12.1132 101.459 12.4522 101.459 12.9454C101.459 13.4077 100.657 14.7639 99.0546 17.0139C97.4519 19.2332 92.3045 27.0466 83.6126 40.4543C74.9207 53.8312 70.5748 60.7046 70.5748 61.0745C70.5748 61.4443 71.931 61.6293 74.6433 61.6293C77.3865 61.6293 80.7462 61.0591 84.7223 59.9186C88.7292 58.7474 92.4895 57.2217 96.0032 55.3415C99.517 53.4614 102.877 51.2884 106.082 48.8226C109.288 46.326 112.031 43.7831 114.312 41.1941C119.305 35.5228 121.802 30.4833 121.802 26.0757C121.802 21.6681 119.783 17.9232 115.745 14.841C111.738 11.7587 106.236 10.2176 99.2396 10.2176C94.5238 10.2176 90.0699 11.0036 85.8781 12.5755C81.6862 14.1475 78.8044 15.5499 77.2324 16.7828C75.6605 18.0157 74.8745 18.8479 74.8745 19.2794C74.8745 19.526 75.0594 19.6493 75.4293 19.6493L77.4174 19.2794C77.6948 19.2794 77.8335 19.341 77.8335 19.4643C77.8335 19.5876 77.5715 19.8034 77.0475 20.1116C76.5235 20.4198 76.092 20.7589 75.753 21.1287C75.4447 21.4678 74.6433 22.038 73.3488 22.8394C72.0543 23.6099 70.883 24.026 69.8351 24.0877Z" fill="white"/>
</g>
<defs>
<filter id="filter0_dddd_476_9440" x="12.8711" y="103.2" width="271.546" height="74" filterUnits="userSpaceOnUse" color-interpolation-filters="sRGB">
<feFlood flood-opacity="0" result="BackgroundImageFix"/>
<feColorMatrix in="SourceAlpha" type="matrix" values="0 0 0 0 0 0 0 0 0 0 0 0 0 0 0 0 0 0 127 0" result="hardAlpha"/>
<feOffset dy="8"/>
<feGaussianBlur stdDeviation="3"/>
<feComposite in2="hardAlpha" operator="out"/>
<feColorMatrix type="matrix" values="0 0 0 0 0 0 0 0 0 0 0 0 0 0 0 0 0 0 0.25 0"/>
<feBlend mode="normal" in2="BackgroundImageFix" result="effect1_dropShadow_476_9440"/>
<feColorMatrix in="SourceAlpha" type="matrix" values="0 0 0 0 0 0 0 0 0 0 0 0 0 0 0 0 0 0 127 0" result="hardAlpha"/>
<feOffset dy="6"/>
<feComposite in2="hardAlpha" operator="out"/>
<feColorMatrix type="matrix" values="0 0 0 0 1 0 0 0 0 1 0 0 0 0 1 0 0 0 0.2 0"/>
<feBlend mode="normal" in2="effect1_dropShadow_476_9440" result="effect2_dropShadow_476_9440"/>
<feColorMatrix in="SourceAlpha" type="matrix" values="0 0 0 0 0 0 0 0 0 0 0 0 0 0 0 0 0 0 127 0" result="hardAlpha"/>
<feOffset dy="4"/>
<feComposite in2="hardAlpha" operator="out"/>
<feColorMatrix type="matrix" values="0 0 0 0 1 0 0 0 0 1 0 0 0 0 1 0 0 0 0.25 0"/>
<feBlend mode="normal" in2="effect2_dropShadow_476_9440" result="effect3_dropShadow_476_9440"/>
<feColorMatrix in="SourceAlpha" type="matrix" values="0 0 0 0 0 0 0 0 0 0 0 0 0 0 0 0 0 0 127 0" result="hardAlpha"/>
<feOffset dy="2"/>
<feComposite in2="hardAlpha" operator="out"/>
<feColorMatrix type="matrix" values="0 0 0 0 0.880033 0 0 0 0 0.557354 0 0 0 0 0 0 0 0 1 0"/>
<feBlend mode="normal" in2="effect3_dropShadow_476_9440" result="effect4_dropShadow_476_9440"/>
<feBlend mode="normal" in="SourceGraphic" in2="effect4_dropShadow_476_9440" result="shape"/>
</filter>
<filter id="filter1_ddd_476_9440" x="57.4668" y="0" width="194.043" height="109.691" filterUnits="userSpaceOnUse" color-interpolation-filters="sRGB">
<feFlood flood-opacity="0" result="BackgroundImageFix"/>
<feColorMatrix in="SourceAlpha" type="matrix" values="0 0 0 0 0 0 0 0 0 0 0 0 0 0 0 0 0 0 127 0" result="hardAlpha"/>
<feOffset dy="8"/>
<feGaussianBlur stdDeviation="2"/>
<feComposite in2="hardAlpha" operator="out"/>
<feColorMatrix type="matrix" values="0 0 0 0 0 0 0 0 0 0 0 0 0 0 0 0 0 0 0.25 0"/>
<feBlend mode="normal" in2="BackgroundImageFix" result="effect1_dropShadow_476_9440"/>
<feColorMatrix in="SourceAlpha" type="matrix" values="0 0 0 0 0 0 0 0 0 0 0 0 0 0 0 0 0 0 127 0" result="hardAlpha"/>
<feOffset dy="4"/>
<feComposite in2="hardAlpha" operator="out"/>
<feColorMatrix type="matrix" values="0 0 0 0 1 0 0 0 0 1 0 0 0 0 1 0 0 0 0.35 0"/>
<feBlend mode="normal" in2="effect1_dropShadow_476_9440" result="effect2_dropShadow_476_9440"/>
<feColorMatrix in="SourceAlpha" type="matrix" values="0 0 0 0 0 0 0 0 0 0 0 0 0 0 0 0 0 0 127 0" result="hardAlpha"/>
<feOffset dy="2"/>
<feComposite in2="hardAlpha" operator="out"/>
<feColorMatrix type="matrix" values="0 0 0 0 1 0 0 0 0 1 0 0 0 0 1 0 0 0 0.5 0"/>
<feBlend mode="normal" in2="effect2_dropShadow_476_9440" result="effect3_dropShadow_476_9440"/>
<feBlend mode="normal" in="SourceGraphic" in2="effect3_dropShadow_476_9440" result="shape"/>
</filter>
<linearGradient id="paint0_linear_476_9440" x1="1" y1="135" x2="294" y2="135" gradientUnits="userSpaceOnUse">
<stop stop-color="white"/>
<stop offset="0.3125" stop-color="white" stop-opacity="0.5"/>
<stop offset="0.677885" stop-color="white"/>
<stop offset="1" stop-color="white" stop-opacity="0.5"/>
</linearGradient>
<linearGradient id="paint1_linear_476_9440" x1="15.9626" y1="109" x2="277.38" y2="175.235" gradientUnits="userSpaceOnUse">
<stop stop-color="#FFED91"/>
<stop offset="0.1" stop-color="#FFBF01"/>
<stop offset="0.25" stop-color="#FFDB25"/>
<stop offset="0.5" stop-color="#FFE460"/>
<stop offset="0.75" stop-color="#FFD500"/>
<stop offset="0.9" stop-color="#FFDD00"/>
<stop offset="1" stop-color="#FFF4BF"/>
</linearGradient>
</defs>
</svg>
