<svg width="411" height="519" viewBox="0 0 411 519" fill="none" xmlns="http://www.w3.org/2000/svg">
<path d="M19.0923 302.895C31.6233 306.134 43.5602 301.771 45.7508 293.157C47.9413 284.544 39.5502 274.938 27.0007 271.699C14.4698 268.459 2.53289 272.822 0.342296 281.436C-1.82974 290.049 6.56137 299.655 19.0923 302.895Z" fill="url(#paint0_linear_488_19028)"/>
<path d="M46.6194 289.73L45.7469 293.157C47.9375 284.543 39.5464 274.937 26.9969 271.698C14.4659 268.458 2.52904 272.821 0.338447 281.435L1.21097 278.008C3.40157 269.395 15.3384 265.032 27.8694 268.271C40.4003 271.511 48.7914 281.117 46.6194 289.73Z" fill="url(#paint1_linear_488_19028)"/>
<path d="M19.3334 301.899C30.6205 304.82 41.3507 300.888 43.3185 293.135C45.2863 285.383 37.7306 276.732 26.4435 273.83C15.1564 270.909 4.42617 274.841 2.45835 282.593C0.509089 290.345 8.0648 298.996 19.3334 301.899Z" fill="url(#paint2_linear_488_19028)"/>
<path d="M19.4901 301.338C30.6287 304.222 41.2475 300.421 43.401 292.856C43.3824 292.949 43.3638 293.043 43.3453 293.137C41.3775 300.889 30.6287 304.821 19.3601 301.9C8.07302 298.979 0.517339 290.347 2.48516 282.595C2.50372 282.501 2.54084 282.407 2.5594 282.314C0.851485 289.991 8.35147 298.455 19.4901 301.338Z" fill="#A86314"/>
<g filter="url(#filter0_di_488_19028)">
<path d="M66.6545 122.675C62.6469 109.575 52.1073 101.216 43.1225 104.003C34.1378 106.791 30.1102 119.676 34.1281 132.793C38.1357 145.893 48.6754 154.252 57.6601 151.465C66.6346 148.661 70.6621 135.775 66.6545 122.675Z" fill="url(#paint3_linear_488_19028)"/>
<path d="M39.5504 105.113L43.1254 104.005C34.1406 106.793 30.1131 119.678 34.131 132.795C38.1386 145.895 48.6782 154.254 57.663 151.467L54.088 152.575C45.1033 155.362 34.5636 147.003 30.556 133.903C26.5484 120.803 30.5759 107.917 39.5504 105.113Z" fill="url(#paint4_linear_488_19028)"/>
<path d="M65.6245 123.008C62.0176 111.206 52.534 103.698 44.4498 106.21C36.3656 108.722 32.7378 120.325 36.3616 132.117C39.9685 143.918 49.452 151.426 57.5363 148.915C65.6102 146.386 69.238 134.782 65.6245 123.008Z" fill="url(#paint5_linear_488_19028)"/>
<path d="M65.0326 123.177C61.4741 111.531 52.1704 104.05 44.1525 106.291C44.2472 106.256 44.342 106.221 44.4367 106.186C52.521 103.674 62.0148 111.199 65.6114 122.984C69.2183 134.786 65.6074 146.379 57.5232 148.891C57.4284 148.926 57.3234 148.944 57.2287 148.979C65.1016 146.274 68.5912 134.824 65.0326 123.177Z" fill="#A86314"/>
</g>
<path d="M400.756 37.7521C405.058 35.3496 409.241 34.3073 410.095 35.4203C410.95 36.5334 408.15 39.3786 403.847 41.7812C399.545 44.1837 395.362 45.226 394.508 44.1129C393.659 42.9954 396.447 40.1482 400.756 37.7521Z" fill="url(#paint6_linear_488_19028)"/>
<path d="M400.838 37.8528C404.714 35.6948 408.473 34.752 409.248 35.7543C410.012 36.7546 407.499 39.3203 403.623 41.4782C399.748 43.6362 395.989 44.5789 395.214 43.5767C394.45 42.5764 396.963 40.0107 400.838 37.8528Z" fill="url(#paint7_linear_488_19028)"/>
<path d="M401.008 38.0081C404.841 35.8656 408.571 34.9073 409.444 35.835C409.43 35.8108 409.423 35.7931 409.404 35.7734C408.625 34.7528 404.826 35.71 400.917 37.8938C397.007 40.0776 394.473 42.6755 395.245 43.6895C395.264 43.7092 395.277 43.7224 395.296 43.7421C394.658 42.6858 397.175 40.1506 401.008 38.0081Z" fill="#A86314"/>
<path d="M410.734 36.407L409.873 35.2876C410.727 36.4005 407.928 39.2453 403.626 41.6476C399.324 44.0498 395.142 45.0919 394.287 43.979L395.148 45.0984C396.002 46.2112 400.185 45.1691 404.487 42.7669C408.789 40.3647 411.588 37.5198 410.734 36.407Z" fill="url(#paint8_linear_488_19028)"/>
<g filter="url(#filter1_f_488_19028)">
<path d="M142.533 106.522C154.696 109.666 166.281 105.432 168.408 97.0716C170.534 88.7114 162.39 79.3881 150.209 76.2439C138.047 73.0998 126.461 77.3344 124.335 85.6945C122.227 94.0546 130.371 103.378 142.533 106.522Z" fill="url(#paint9_linear_488_19028)"/>
<path d="M169.251 93.746L168.404 97.0719C170.53 88.7118 162.386 79.3884 150.206 76.2443C138.043 73.1001 126.458 77.3347 124.331 85.6949L125.178 82.369C127.304 74.0088 138.89 69.7743 151.052 72.9184C163.215 76.0625 171.359 85.3859 169.251 93.746Z" fill="url(#paint10_linear_488_19028)"/>
<path d="M142.768 105.555C153.723 108.39 164.138 104.574 166.048 97.0495C167.958 89.5253 160.624 81.1289 149.669 78.3119C138.714 75.4767 128.299 79.2933 126.389 86.8174C124.498 94.3415 131.831 102.738 142.768 105.555Z" fill="url(#paint11_linear_488_19028)"/>
<path d="M142.919 105.013C153.73 107.812 164.036 104.123 166.126 96.7802C166.108 96.871 166.09 96.9619 166.072 97.0528C164.162 104.577 153.73 108.393 142.793 105.558C131.838 102.723 124.504 94.3448 126.414 86.8207C126.432 86.7298 126.468 86.639 126.486 86.5481C124.829 93.9995 132.108 102.214 142.919 105.013Z" fill="#A86314"/>
</g>
<path d="M200.093 34.7034C191.416 51.0668 193.517 69.1323 204.777 75.0464C216.037 80.9606 232.198 72.477 240.882 56.0877C249.559 39.7243 247.457 21.6588 236.197 15.7446C224.931 9.85628 208.77 18.3399 200.093 34.7034Z" fill="url(#paint12_linear_488_19028)"/>
<path d="M209.259 77.3944L204.78 75.0402C216.04 80.9544 232.201 72.4707 240.884 56.0815C249.561 39.7181 247.46 21.6526 236.2 15.7384L240.679 18.0927C251.939 24.0069 254.04 42.0723 245.363 58.4357C236.686 74.7991 220.525 83.2828 209.259 77.3944Z" fill="url(#paint13_linear_488_19028)"/>
<path d="M201.4 35.3724C193.58 50.1105 195.483 66.3532 205.619 71.6708C215.754 76.9884 230.308 69.3498 238.102 54.6055C245.922 39.8673 244.019 23.6247 233.883 18.3071C223.742 13.0153 209.188 20.6539 201.4 35.3724Z" fill="url(#paint14_linear_488_19028)"/>
<path d="M202.126 35.7738C194.408 50.3177 196.166 66.3617 205.979 71.8754C205.855 71.8184 205.731 71.7615 205.606 71.7045C195.471 66.3869 193.574 50.1184 201.388 35.4061C209.208 20.668 223.736 13.0232 233.871 18.3408C233.995 18.3978 234.113 18.4806 234.238 18.5375C224.12 13.6066 209.845 21.2299 202.126 35.7738Z" fill="#A86314"/>
<g opacity="0.5">
<path d="M389.565 162.518C382.513 164.341 375.795 161.885 374.563 157.038C373.33 152.191 378.052 146.785 385.114 144.962C392.166 143.139 398.883 145.594 400.116 150.442C401.338 155.289 396.616 160.695 389.565 162.518Z" fill="url(#paint15_linear_488_19028)"/>
<path d="M374.074 155.109L374.565 157.038C373.333 152.19 378.055 146.785 385.117 144.962C392.169 143.139 398.886 145.594 400.119 150.441L399.628 148.513C398.395 143.666 391.678 141.21 384.626 143.033C377.574 144.856 372.852 150.262 374.074 155.109Z" fill="url(#paint16_linear_488_19028)"/>
<path d="M389.429 161.957C383.077 163.601 377.039 161.388 375.931 157.025C374.824 152.663 379.076 147.795 385.428 146.161C391.78 144.517 397.818 146.73 398.925 151.093C400.022 155.455 395.77 160.324 389.429 161.957Z" fill="url(#paint17_linear_488_19028)"/>
<path d="M389.341 161.641C383.073 163.264 377.097 161.125 375.885 156.868C375.896 156.921 375.906 156.973 375.917 157.026C377.024 161.388 383.073 163.601 389.414 161.957C395.766 160.314 400.018 155.456 398.911 151.093C398.9 151.041 398.879 150.988 398.869 150.935C399.83 155.256 395.609 160.019 389.341 161.641Z" fill="#A86314"/>
</g>
<g opacity="0.5">
<path d="M74.2964 200.88C74.6625 193.606 79.0118 187.928 84.006 188.199C89.0002 188.47 92.7491 194.591 92.3798 201.876C92.0137 209.15 87.6644 214.828 82.6702 214.557C77.6791 214.276 73.9303 208.155 74.2964 200.88Z" fill="url(#paint18_linear_488_19028)"/>
<path d="M85.9928 188.308L84.0058 188.201C89 188.472 92.7488 194.593 92.3796 201.877C92.0134 209.151 87.6642 214.829 82.67 214.558L84.657 214.665C89.6512 214.936 94.0004 209.259 94.3666 201.984C94.7327 194.71 90.9839 188.589 85.9928 188.308Z" fill="url(#paint19_linear_488_19028)"/>
<path d="M74.8717 200.918C75.1998 194.365 79.1149 189.263 83.6091 189.509C88.1032 189.755 91.4796 195.267 91.1415 201.817C90.8134 208.369 86.8982 213.471 82.4041 213.225C77.9131 212.97 74.5367 207.458 74.8717 200.918Z" fill="url(#paint20_linear_488_19028)"/>
<path d="M75.1994 200.929C75.5227 194.462 79.3487 189.398 83.7735 189.513C83.7201 189.507 83.6667 189.501 83.6133 189.496C79.1192 189.25 75.2009 194.362 74.8759 200.905C74.5478 207.457 77.9142 212.966 82.4083 213.212C82.4617 213.218 82.5182 213.214 82.5716 213.219C78.1614 212.846 74.8762 207.396 75.1994 200.929Z" fill="#A86314"/>
</g>
<g filter="url(#filter2_di_488_19028)">
<path d="M358.652 57.8903C349.214 33.4531 335.627 16.573 328.229 20.2304C320.83 23.8879 322.498 46.6985 331.936 71.1356C341.374 95.5727 354.961 112.453 362.359 108.795C369.726 105.116 368.09 82.3274 358.652 57.8903Z" fill="url(#paint21_linear_488_19028)"/>
<path d="M357.921 58.2094C349.468 36.2024 337.173 21.0376 330.557 24.3154C323.903 27.6289 325.385 48.1391 333.875 70.1105C342.327 92.1175 354.622 107.282 361.239 104.005C367.887 100.749 366.405 80.2388 357.921 58.2094Z" fill="url(#paint22_linear_488_19028)"/>
<path d="M356.987 58.6309C348.659 36.9315 336.69 21.8927 329.909 24.4717C330.053 24.3864 330.128 24.3146 330.273 24.2293C336.957 20.8965 349.245 36.1595 357.703 58.2626C366.161 80.3657 367.655 100.992 360.976 104.266C360.869 104.316 360.693 104.378 360.586 104.428C366.848 100.548 365.314 80.3303 356.987 58.6309Z" fill="#A86314"/>
<path d="M321.772 23.7119L329.173 20.0389C321.809 23.6763 323.497 46.3862 332.925 70.7191C342.354 95.0521 355.906 111.864 363.271 108.226L355.869 111.899C348.505 115.537 334.916 98.7606 325.524 74.3921C316.101 50.0014 314.408 27.3493 321.772 23.7119Z" fill="url(#paint23_linear_488_19028)"/>
</g>
<path d="M368.304 474.63C372.606 477.033 376.789 478.075 377.643 476.962C378.498 475.849 375.698 473.004 371.396 470.601C367.093 468.199 362.91 467.156 362.056 468.269C361.207 469.387 363.995 472.234 368.304 474.63Z" fill="url(#paint24_linear_488_19028)"/>
<path d="M368.387 474.53C372.262 476.688 376.021 477.63 376.796 476.628C377.56 475.628 375.047 473.062 371.172 470.904C367.296 468.746 363.537 467.803 362.762 468.806C361.998 469.806 364.511 472.372 368.387 474.53Z" fill="url(#paint25_linear_488_19028)"/>
<path d="M368.557 474.374C372.39 476.517 376.119 477.475 376.992 476.547C376.978 476.572 376.971 476.589 376.952 476.609C376.173 477.63 372.375 476.672 368.465 474.489C364.555 472.305 362.021 469.707 362.793 468.693C362.813 468.673 362.825 468.66 362.845 468.64C362.206 469.696 364.723 472.232 368.557 474.374Z" fill="#A86314"/>
<path d="M378.282 475.975L377.421 477.095C378.276 475.982 375.476 473.137 371.174 470.735C366.872 468.333 362.69 467.29 361.836 468.403L362.696 467.284C363.551 466.171 367.733 467.213 372.035 469.615C376.337 472.018 379.136 474.862 378.282 475.975Z" fill="url(#paint26_linear_488_19028)"/>
<g filter="url(#filter3_f_488_19028)">
<path d="M111.684 424.507C123.846 421.363 135.432 425.598 137.558 433.958C139.684 442.318 131.54 451.641 119.36 454.785C107.197 457.93 95.6116 453.695 93.4854 445.335C91.3773 436.975 99.5215 427.651 111.684 424.507Z" fill="url(#paint27_linear_488_19028)"/>
<path d="M138.401 437.283L137.554 433.958C139.681 442.318 131.536 451.641 119.356 454.785C107.194 457.929 95.608 453.695 93.4819 445.335L94.3287 448.66C96.4549 457.021 108.041 461.255 120.203 458.111C132.365 454.967 140.509 445.644 138.401 437.283Z" fill="url(#paint28_linear_488_19028)"/>
<path d="M111.919 425.474C122.874 422.639 133.288 426.456 135.198 433.98C137.108 441.504 129.775 449.901 118.819 452.718C107.864 455.553 97.4499 451.736 95.5399 444.212C93.648 436.688 100.981 428.291 111.919 425.474Z" fill="url(#paint29_linear_488_19028)"/>
<path d="M112.069 426.016C122.88 423.218 133.187 426.907 135.277 434.249C135.259 434.158 135.241 434.068 135.223 433.977C133.313 426.453 122.88 422.636 111.943 425.471C100.988 428.306 93.6547 436.685 95.5646 444.209C95.5826 444.3 95.6187 444.39 95.6367 444.481C93.979 437.03 101.258 428.815 112.069 426.016Z" fill="#A86314"/>
</g>
<path d="M186.068 498.172C177.391 481.808 179.492 463.743 190.752 457.829C202.012 451.914 218.173 460.398 226.857 476.787C235.534 493.151 233.432 511.216 222.172 517.13C210.906 523.019 194.745 514.535 186.068 498.172Z" fill="url(#paint30_linear_488_19028)"/>
<path d="M195.234 455.481L190.755 457.835C202.015 451.921 218.176 460.404 226.859 476.794C235.536 493.157 233.435 511.223 222.175 517.137L226.654 514.782C237.914 508.868 240.015 490.803 231.338 474.439C222.661 458.076 206.5 449.592 195.234 455.481Z" fill="url(#paint31_linear_488_19028)"/>
<path d="M187.375 497.503C179.555 482.765 181.458 466.522 191.594 461.204C201.729 455.887 216.283 463.525 224.077 478.27C231.897 493.008 229.994 509.25 219.858 514.568C209.717 519.86 195.163 512.221 187.375 497.503Z" fill="url(#paint32_linear_488_19028)"/>
<path d="M188.101 497.101C180.383 482.557 182.141 466.513 191.954 461C191.83 461.057 191.706 461.114 191.581 461.171C181.446 466.488 179.549 482.757 187.363 497.469C195.183 512.207 209.711 519.852 219.846 514.534C219.97 514.477 220.088 514.395 220.213 514.338C210.095 519.269 195.82 511.645 188.101 497.101Z" fill="#A86314"/>
<g opacity="0.5">
<path d="M351.236 407.044C344.184 405.221 337.467 407.676 336.234 412.523C335.001 417.371 339.723 422.776 346.785 424.599C353.837 426.422 360.555 423.967 361.787 419.12C363.01 414.273 358.288 408.867 351.236 407.044Z" fill="url(#paint33_linear_488_19028)"/>
<path d="M335.746 414.452L336.237 412.524C335.004 417.371 339.726 422.777 346.788 424.6C353.84 426.423 360.558 423.968 361.79 419.12L361.299 421.049C360.067 425.896 353.349 428.351 346.297 426.528C339.246 424.705 334.523 419.299 335.746 414.452Z" fill="url(#paint34_linear_488_19028)"/>
<path d="M351.1 407.605C344.748 405.961 338.71 408.174 337.603 412.536C336.495 416.899 340.747 421.767 347.099 423.4C353.451 425.044 359.489 422.831 360.597 418.469C361.694 414.106 357.442 409.238 351.1 407.605Z" fill="url(#paint35_linear_488_19028)"/>
<path d="M351.012 407.92C344.744 406.297 338.768 408.437 337.557 412.694C337.567 412.641 337.578 412.588 337.588 412.536C338.695 408.173 344.744 405.96 351.086 407.604C357.437 409.248 361.689 414.106 360.582 418.468C360.572 418.521 360.551 418.574 360.54 418.626C361.501 414.306 357.281 409.543 351.012 407.92Z" fill="#A86314"/>
</g>
<g opacity="0.5">
<path d="M41.8446 311.501C42.2107 318.775 46.56 324.453 51.5542 324.182C56.5484 323.911 60.2973 317.79 59.928 310.506C59.5619 303.231 55.2126 297.554 50.2184 297.825C45.2273 298.106 41.4785 304.227 41.8446 311.501Z" fill="url(#paint36_linear_488_19028)"/>
<path d="M53.541 324.074L51.554 324.181C56.5482 323.91 60.297 317.789 59.9278 310.504C59.5616 303.23 55.2124 297.552 50.2182 297.823L52.2052 297.716C57.1994 297.445 61.5486 303.123 61.9148 310.397C62.2809 317.672 58.532 323.792 53.541 324.074Z" fill="url(#paint37_linear_488_19028)"/>
<path d="M42.4199 311.463C42.7479 318.016 46.6631 323.118 51.1573 322.872C55.6514 322.626 59.0278 317.114 58.6897 310.565C58.3616 304.012 54.4464 298.91 49.9523 299.156C45.4613 299.412 42.0849 304.924 42.4199 311.463Z" fill="url(#paint38_linear_488_19028)"/>
<path d="M42.7476 311.452C43.0709 317.919 46.8969 322.983 51.3217 322.868C51.2683 322.874 51.2149 322.88 51.1615 322.886C46.6674 323.132 42.749 318.02 42.4241 311.477C42.096 304.924 45.4624 299.415 49.9565 299.169C50.0099 299.163 50.0664 299.168 50.1198 299.162C45.7096 299.535 42.4244 304.985 42.7476 311.452Z" fill="#A86314"/>
</g>
<defs>
<filter id="filter0_di_488_19028" x="5.26569" y="83.7348" width="86.6783" height="97.1216" filterUnits="userSpaceOnUse" color-interpolation-filters="sRGB">
<feFlood flood-opacity="0" result="BackgroundImageFix"/>
<feColorMatrix in="SourceAlpha" type="matrix" values="0 0 0 0 0 0 0 0 0 0 0 0 0 0 0 0 0 0 127 0" result="hardAlpha"/>
<feOffset dy="4"/>
<feGaussianBlur stdDeviation="11.85"/>
<feComposite in2="hardAlpha" operator="out"/>
<feColorMatrix type="matrix" values="0 0 0 0 1 0 0 0 0 0.960696 0 0 0 0 0.618522 0 0 0 0.73 0"/>
<feBlend mode="normal" in2="BackgroundImageFix" result="effect1_dropShadow_488_19028"/>
<feBlend mode="normal" in="SourceGraphic" in2="effect1_dropShadow_488_19028" result="shape"/>
<feColorMatrix in="SourceAlpha" type="matrix" values="0 0 0 0 0 0 0 0 0 0 0 0 0 0 0 0 0 0 127 0" result="hardAlpha"/>
<feOffset dx="2"/>
<feGaussianBlur stdDeviation="1"/>
<feComposite in2="hardAlpha" operator="arithmetic" k2="-1" k3="1"/>
<feColorMatrix type="matrix" values="0 0 0 0 0.984314 0 0 0 0 0.988235 0 0 0 0 0.803922 0 0 0 0.39 0"/>
<feBlend mode="normal" in2="shape" result="effect2_innerShadow_488_19028"/>
</filter>
<filter id="filter1_f_488_19028" x="117.292" y="65.1686" width="59.0029" height="49.1032" filterUnits="userSpaceOnUse" color-interpolation-filters="sRGB">
<feFlood flood-opacity="0" result="BackgroundImageFix"/>
<feBlend mode="normal" in="SourceGraphic" in2="BackgroundImageFix" result="shape"/>
<feGaussianBlur stdDeviation="3.35" result="effect1_foregroundBlur_488_19028"/>
</filter>
<filter id="filter2_di_488_19028" x="293.449" y="-4.96728e-05" width="97.2562" height="140.141" filterUnits="userSpaceOnUse" color-interpolation-filters="sRGB">
<feFlood flood-opacity="0" result="BackgroundImageFix"/>
<feColorMatrix in="SourceAlpha" type="matrix" values="0 0 0 0 0 0 0 0 0 0 0 0 0 0 0 0 0 0 127 0" result="hardAlpha"/>
<feOffset dy="4"/>
<feGaussianBlur stdDeviation="11.85"/>
<feComposite in2="hardAlpha" operator="out"/>
<feColorMatrix type="matrix" values="0 0 0 0 1 0 0 0 0 0.960696 0 0 0 0 0.618522 0 0 0 0.73 0"/>
<feBlend mode="normal" in2="BackgroundImageFix" result="effect1_dropShadow_488_19028"/>
<feBlend mode="normal" in="SourceGraphic" in2="effect1_dropShadow_488_19028" result="shape"/>
<feColorMatrix in="SourceAlpha" type="matrix" values="0 0 0 0 0 0 0 0 0 0 0 0 0 0 0 0 0 0 127 0" result="hardAlpha"/>
<feOffset dx="2"/>
<feGaussianBlur stdDeviation="1"/>
<feComposite in2="hardAlpha" operator="arithmetic" k2="-1" k3="1"/>
<feColorMatrix type="matrix" values="0 0 0 0 0.984314 0 0 0 0 0.988235 0 0 0 0 0.803922 0 0 0 0.39 0"/>
<feBlend mode="normal" in2="shape" result="effect2_innerShadow_488_19028"/>
</filter>
<filter id="filter3_f_488_19028" x="86.4422" y="416.758" width="59.0029" height="49.1032" filterUnits="userSpaceOnUse" color-interpolation-filters="sRGB">
<feFlood flood-opacity="0" result="BackgroundImageFix"/>
<feBlend mode="normal" in="SourceGraphic" in2="BackgroundImageFix" result="shape"/>
<feGaussianBlur stdDeviation="3.35" result="effect1_foregroundBlur_488_19028"/>
</filter>
<linearGradient id="paint0_linear_488_19028" x1="27.1203" y1="271.248" x2="18.3058" y2="305.4" gradientUnits="userSpaceOnUse">
<stop stop-color="#FFEE7A"/>
<stop offset="1" stop-color="#D3912F"/>
</linearGradient>
<linearGradient id="paint1_linear_488_19028" x1="50.4258" y1="284.228" x2="8.71666" y2="273.647" gradientUnits="userSpaceOnUse">
<stop stop-color="#FFBF4A"/>
<stop offset="0.1216" stop-color="#FFEE7A"/>
<stop offset="0.2011" stop-color="#FFFFE1"/>
<stop offset="0.2776" stop-color="#FFFFA6"/>
<stop offset="0.3693" stop-color="#FFCF5A"/>
<stop offset="0.4784" stop-color="#9A5A12"/>
<stop offset="0.6514" stop-color="#FFBF4A"/>
<stop offset="1" stop-color="#A86314"/>
</linearGradient>
<linearGradient id="paint2_linear_488_19028" x1="37.1415" y1="230.639" x2="16.226" y2="313.263" gradientUnits="userSpaceOnUse">
<stop stop-color="#FFDF6A"/>
<stop offset="0.0459" stop-color="#FFDF6A"/>
<stop offset="1" stop-color="#BE7A22"/>
</linearGradient>
<linearGradient id="paint3_linear_488_19028" x1="33.6557" y1="132.934" x2="69.351" y2="121.999" gradientUnits="userSpaceOnUse">
<stop stop-color="#FFEE7A"/>
<stop offset="1" stop-color="#D3912F"/>
</linearGradient>
<linearGradient id="paint4_linear_488_19028" x1="32.48" y1="104.721" x2="46.001" y2="148.214" gradientUnits="userSpaceOnUse">
<stop stop-color="#FFBF4A"/>
<stop offset="0.1216" stop-color="#FFEE7A"/>
<stop offset="0.2011" stop-color="#FFFFE1"/>
<stop offset="0.2776" stop-color="#FFFFA6"/>
<stop offset="0.3693" stop-color="#FFCF5A"/>
<stop offset="0.4784" stop-color="#9A5A12"/>
<stop offset="0.6514" stop-color="#FFBF4A"/>
<stop offset="1" stop-color="#A86314"/>
</linearGradient>
<linearGradient id="paint5_linear_488_19028" x1="-8.53259" y1="146.352" x2="77.599" y2="119.526" gradientUnits="userSpaceOnUse">
<stop stop-color="#FFDF6A"/>
<stop offset="0.0459" stop-color="#FFDF6A"/>
<stop offset="1" stop-color="#BE7A22"/>
</linearGradient>
<linearGradient id="paint6_linear_488_19028" x1="403.894" y1="41.8367" x2="401.212" y2="37.0245" gradientUnits="userSpaceOnUse">
<stop stop-color="#FFEE7A"/>
<stop offset="1" stop-color="#D3912F"/>
</linearGradient>
<linearGradient id="paint7_linear_488_19028" x1="409.756" y1="49.4595" x2="401.223" y2="34.1496" gradientUnits="userSpaceOnUse">
<stop stop-color="#FFDF6A"/>
<stop offset="0.0459" stop-color="#FFDF6A"/>
<stop offset="1" stop-color="#BE7A22"/>
</linearGradient>
<linearGradient id="paint8_linear_488_19028" x1="411.479" y1="36.6286" x2="396.263" y2="48.3164" gradientUnits="userSpaceOnUse">
<stop stop-color="#FFBF4A"/>
<stop offset="0.1216" stop-color="#FFEE7A"/>
<stop offset="0.2011" stop-color="#FFFFE1"/>
<stop offset="0.2776" stop-color="#FFFFA6"/>
<stop offset="0.3693" stop-color="#FFCF5A"/>
<stop offset="0.4784" stop-color="#9A5A12"/>
<stop offset="0.6514" stop-color="#FFBF4A"/>
<stop offset="1" stop-color="#A86314"/>
</linearGradient>
<linearGradient id="paint9_linear_488_19028" x1="150.325" y1="75.807" x2="141.77" y2="108.954" gradientUnits="userSpaceOnUse">
<stop stop-color="#FFEE7A"/>
<stop offset="1" stop-color="#D3912F"/>
</linearGradient>
<linearGradient id="paint10_linear_488_19028" x1="172.945" y1="88.406" x2="132.463" y2="78.1362" gradientUnits="userSpaceOnUse">
<stop stop-color="#FFBF4A"/>
<stop offset="0.1216" stop-color="#FFEE7A"/>
<stop offset="0.2011" stop-color="#FFFFE1"/>
<stop offset="0.2776" stop-color="#FFFFA6"/>
<stop offset="0.3693" stop-color="#FFCF5A"/>
<stop offset="0.4784" stop-color="#9A5A12"/>
<stop offset="0.6514" stop-color="#FFBF4A"/>
<stop offset="1" stop-color="#A86314"/>
</linearGradient>
<linearGradient id="paint11_linear_488_19028" x1="160.052" y1="36.3914" x2="139.752" y2="116.585" gradientUnits="userSpaceOnUse">
<stop stop-color="#FFDF6A"/>
<stop offset="0.0459" stop-color="#FFDF6A"/>
<stop offset="1" stop-color="#BE7A22"/>
</linearGradient>
<linearGradient id="paint12_linear_488_19028" x1="241.468" y1="56.4039" x2="196.867" y2="32.775" gradientUnits="userSpaceOnUse">
<stop stop-color="#FFEE7A"/>
<stop offset="1" stop-color="#D3912F"/>
</linearGradient>
<linearGradient id="paint13_linear_488_19028" x1="215.651" y1="84.5224" x2="244.252" y2="29.9901" gradientUnits="userSpaceOnUse">
<stop stop-color="#FFBF4A"/>
<stop offset="0.1216" stop-color="#FFEE7A"/>
<stop offset="0.2011" stop-color="#FFFFE1"/>
<stop offset="0.2776" stop-color="#FFFFA6"/>
<stop offset="0.3693" stop-color="#FFCF5A"/>
<stop offset="0.4784" stop-color="#9A5A12"/>
<stop offset="0.6514" stop-color="#FFBF4A"/>
<stop offset="1" stop-color="#A86314"/>
</linearGradient>
<linearGradient id="paint14_linear_488_19028" x1="294.658" y1="83.8626" x2="186.616" y2="27.2671" gradientUnits="userSpaceOnUse">
<stop stop-color="#FFDF6A"/>
<stop offset="0.0459" stop-color="#FFDF6A"/>
<stop offset="1" stop-color="#BE7A22"/>
</linearGradient>
<linearGradient id="paint15_linear_488_19028" x1="385.047" y1="144.709" x2="390.007" y2="163.928" gradientUnits="userSpaceOnUse">
<stop stop-color="#FFEE7A"/>
<stop offset="1" stop-color="#D3912F"/>
</linearGradient>
<linearGradient id="paint16_linear_488_19028" x1="371.932" y1="152.013" x2="395.404" y2="146.059" gradientUnits="userSpaceOnUse">
<stop stop-color="#FFBF4A"/>
<stop offset="0.1216" stop-color="#FFEE7A"/>
<stop offset="0.2011" stop-color="#FFFFE1"/>
<stop offset="0.2776" stop-color="#FFFFA6"/>
<stop offset="0.3693" stop-color="#FFCF5A"/>
<stop offset="0.4784" stop-color="#9A5A12"/>
<stop offset="0.6514" stop-color="#FFBF4A"/>
<stop offset="1" stop-color="#A86314"/>
</linearGradient>
<linearGradient id="paint17_linear_488_19028" x1="379.407" y1="121.856" x2="391.178" y2="168.352" gradientUnits="userSpaceOnUse">
<stop stop-color="#FFDF6A"/>
<stop offset="0.0459" stop-color="#FFDF6A"/>
<stop offset="1" stop-color="#BE7A22"/>
</linearGradient>
<linearGradient id="paint18_linear_488_19028" x1="92.6417" y1="201.887" x2="72.8184" y2="200.882" gradientUnits="userSpaceOnUse">
<stop stop-color="#FFEE7A"/>
<stop offset="1" stop-color="#D3912F"/>
</linearGradient>
<linearGradient id="paint19_linear_488_19028" x1="89.5873" y1="187.188" x2="88.2606" y2="211.367" gradientUnits="userSpaceOnUse">
<stop stop-color="#FFBF4A"/>
<stop offset="0.1216" stop-color="#FFEE7A"/>
<stop offset="0.2011" stop-color="#FFFFE1"/>
<stop offset="0.2776" stop-color="#FFFFA6"/>
<stop offset="0.3693" stop-color="#FFCF5A"/>
<stop offset="0.4784" stop-color="#9A5A12"/>
<stop offset="0.6514" stop-color="#FFBF4A"/>
<stop offset="1" stop-color="#A86314"/>
</linearGradient>
<linearGradient id="paint20_linear_488_19028" x1="116.136" y1="203.33" x2="68.2459" y2="200.677" gradientUnits="userSpaceOnUse">
<stop stop-color="#FFDF6A"/>
<stop offset="0.0459" stop-color="#FFDF6A"/>
<stop offset="1" stop-color="#BE7A22"/>
</linearGradient>
<linearGradient id="paint21_linear_488_19028" x1="331.518" y1="71.3193" x2="361.909" y2="59.615" gradientUnits="userSpaceOnUse">
<stop stop-color="#FFEE7A"/>
<stop offset="1" stop-color="#D3912F"/>
</linearGradient>
<linearGradient id="paint22_linear_488_19028" x1="316.585" y1="80.0136" x2="362.508" y2="58.5976" gradientUnits="userSpaceOnUse">
<stop stop-color="#FFFFA6"/>
<stop offset="1" stop-color="#E9A83D"/>
</linearGradient>
<linearGradient id="paint23_linear_488_19028" x1="317.94" y1="22.8749" x2="363.353" y2="114.576" gradientUnits="userSpaceOnUse">
<stop stop-color="#FFBF4A"/>
<stop offset="0.1216" stop-color="#FFEE7A"/>
<stop offset="0.2011" stop-color="#FFFFE1"/>
<stop offset="0.2776" stop-color="#FFFFA6"/>
<stop offset="0.3693" stop-color="#FFCF5A"/>
<stop offset="0.4784" stop-color="#9A5A12"/>
<stop offset="0.6514" stop-color="#FFBF4A"/>
<stop offset="1" stop-color="#A86314"/>
</linearGradient>
<linearGradient id="paint24_linear_488_19028" x1="371.442" y1="470.546" x2="368.76" y2="475.358" gradientUnits="userSpaceOnUse">
<stop stop-color="#FFEE7A"/>
<stop offset="1" stop-color="#D3912F"/>
</linearGradient>
<linearGradient id="paint25_linear_488_19028" x1="377.304" y1="462.923" x2="368.771" y2="478.233" gradientUnits="userSpaceOnUse">
<stop stop-color="#FFDF6A"/>
<stop offset="0.0459" stop-color="#FFDF6A"/>
<stop offset="1" stop-color="#BE7A22"/>
</linearGradient>
<linearGradient id="paint26_linear_488_19028" x1="379.028" y1="475.754" x2="363.811" y2="464.066" gradientUnits="userSpaceOnUse">
<stop stop-color="#FFBF4A"/>
<stop offset="0.1216" stop-color="#FFEE7A"/>
<stop offset="0.2011" stop-color="#FFFFE1"/>
<stop offset="0.2776" stop-color="#FFFFA6"/>
<stop offset="0.3693" stop-color="#FFCF5A"/>
<stop offset="0.4784" stop-color="#9A5A12"/>
<stop offset="0.6514" stop-color="#FFBF4A"/>
<stop offset="1" stop-color="#A86314"/>
</linearGradient>
<linearGradient id="paint27_linear_488_19028" x1="119.476" y1="455.222" x2="110.92" y2="422.075" gradientUnits="userSpaceOnUse">
<stop stop-color="#FFEE7A"/>
<stop offset="1" stop-color="#D3912F"/>
</linearGradient>
<linearGradient id="paint28_linear_488_19028" x1="142.096" y1="442.623" x2="101.614" y2="452.893" gradientUnits="userSpaceOnUse">
<stop stop-color="#FFBF4A"/>
<stop offset="0.1216" stop-color="#FFEE7A"/>
<stop offset="0.2011" stop-color="#FFFFE1"/>
<stop offset="0.2776" stop-color="#FFFFA6"/>
<stop offset="0.3693" stop-color="#FFCF5A"/>
<stop offset="0.4784" stop-color="#9A5A12"/>
<stop offset="0.6514" stop-color="#FFBF4A"/>
<stop offset="1" stop-color="#A86314"/>
</linearGradient>
<linearGradient id="paint29_linear_488_19028" x1="129.203" y1="494.638" x2="108.903" y2="414.444" gradientUnits="userSpaceOnUse">
<stop stop-color="#FFDF6A"/>
<stop offset="0.0459" stop-color="#FFDF6A"/>
<stop offset="1" stop-color="#BE7A22"/>
</linearGradient>
<linearGradient id="paint30_linear_488_19028" x1="227.443" y1="476.471" x2="182.842" y2="500.1" gradientUnits="userSpaceOnUse">
<stop stop-color="#FFEE7A"/>
<stop offset="1" stop-color="#D3912F"/>
</linearGradient>
<linearGradient id="paint31_linear_488_19028" x1="201.625" y1="448.353" x2="230.227" y2="502.885" gradientUnits="userSpaceOnUse">
<stop stop-color="#FFBF4A"/>
<stop offset="0.1216" stop-color="#FFEE7A"/>
<stop offset="0.2011" stop-color="#FFFFE1"/>
<stop offset="0.2776" stop-color="#FFFFA6"/>
<stop offset="0.3693" stop-color="#FFCF5A"/>
<stop offset="0.4784" stop-color="#9A5A12"/>
<stop offset="0.6514" stop-color="#FFBF4A"/>
<stop offset="1" stop-color="#A86314"/>
</linearGradient>
<linearGradient id="paint32_linear_488_19028" x1="280.633" y1="449.012" x2="172.591" y2="505.608" gradientUnits="userSpaceOnUse">
<stop stop-color="#FFDF6A"/>
<stop offset="0.0459" stop-color="#FFDF6A"/>
<stop offset="1" stop-color="#BE7A22"/>
</linearGradient>
<linearGradient id="paint33_linear_488_19028" x1="346.718" y1="424.853" x2="351.679" y2="405.634" gradientUnits="userSpaceOnUse">
<stop stop-color="#FFEE7A"/>
<stop offset="1" stop-color="#D3912F"/>
</linearGradient>
<linearGradient id="paint34_linear_488_19028" x1="333.604" y1="417.548" x2="357.075" y2="423.503" gradientUnits="userSpaceOnUse">
<stop stop-color="#FFBF4A"/>
<stop offset="0.1216" stop-color="#FFEE7A"/>
<stop offset="0.2011" stop-color="#FFFFE1"/>
<stop offset="0.2776" stop-color="#FFFFA6"/>
<stop offset="0.3693" stop-color="#FFCF5A"/>
<stop offset="0.4784" stop-color="#9A5A12"/>
<stop offset="0.6514" stop-color="#FFBF4A"/>
<stop offset="1" stop-color="#A86314"/>
</linearGradient>
<linearGradient id="paint35_linear_488_19028" x1="341.079" y1="447.706" x2="352.849" y2="401.209" gradientUnits="userSpaceOnUse">
<stop stop-color="#FFDF6A"/>
<stop offset="0.0459" stop-color="#FFDF6A"/>
<stop offset="1" stop-color="#BE7A22"/>
</linearGradient>
<linearGradient id="paint36_linear_488_19028" x1="60.1899" y1="310.494" x2="40.3666" y2="311.5" gradientUnits="userSpaceOnUse">
<stop stop-color="#FFEE7A"/>
<stop offset="1" stop-color="#D3912F"/>
</linearGradient>
<linearGradient id="paint37_linear_488_19028" x1="57.1355" y1="325.193" x2="55.8087" y2="301.014" gradientUnits="userSpaceOnUse">
<stop stop-color="#FFBF4A"/>
<stop offset="0.1216" stop-color="#FFEE7A"/>
<stop offset="0.2011" stop-color="#FFFFE1"/>
<stop offset="0.2776" stop-color="#FFFFA6"/>
<stop offset="0.3693" stop-color="#FFCF5A"/>
<stop offset="0.4784" stop-color="#9A5A12"/>
<stop offset="0.6514" stop-color="#FFBF4A"/>
<stop offset="1" stop-color="#A86314"/>
</linearGradient>
<linearGradient id="paint38_linear_488_19028" x1="83.6841" y1="309.052" x2="35.7941" y2="311.704" gradientUnits="userSpaceOnUse">
<stop stop-color="#FFDF6A"/>
<stop offset="0.0459" stop-color="#FFDF6A"/>
<stop offset="1" stop-color="#BE7A22"/>
</linearGradient>
</defs>
</svg>
