<svg xmlns="http://www.w3.org/2000/svg" width="652" height="653" viewBox="-138.2 -86.1553 651.888 652.86" fill="none">
  <g filter="url(#filter0_f_488_19017)">
    <path fill-rule="evenodd" clip-rule="evenodd" d="M194.748 240.608C194.748 240.475 194.748 240.335 194.748 240.202L497.488 235.303C496.01 206.075 497.266 220.674 493.681 191.513L194.652 239.138C194.63 239.012 194.6 238.872 194.578 238.732C194.541 238.599 194.512 238.466 194.475 238.333L486.511 158.295C477.7 130.116 482.601 144.006 471.816 116.61L194.12 237.32C194.061 237.187 194.002 237.062 193.95 236.944C193.883 236.825 193.817 236.7 193.75 236.582L456.588 86.2658C441.124 61.345 449.292 73.5062 432.106 49.7674L193.166 235.695C193.07 235.592 192.989 235.481 192.893 235.377C192.804 235.274 192.715 235.17 192.619 235.074L409.937 24.2777C388.825 3.99669 399.721 13.7567 377.213 -5.0023L191.814 234.358C191.703 234.276 191.599 234.202 191.488 234.114C191.37 234.04 191.252 233.966 191.141 233.885L349.352 -24.2637C323.694 -38.767 336.756 -31.9919 310.182 -44.6038L190.195 233.397C190.062 233.345 189.936 233.294 189.81 233.249C189.677 233.198 189.552 233.146 189.419 233.116L278.197 -56.3734C249.745 -63.9982 264.07 -60.7104 235.19 -66.2664L188.384 232.88C188.251 232.858 188.125 232.836 187.97 232.821C187.844 232.814 187.696 232.806 187.571 232.791L201.541 -69.6798C172.173 -70.0123 186.846 -70.3669 157.655 -68.6454L186.484 232.806C186.351 232.821 186.21 232.828 186.07 232.85C185.937 232.873 185.811 232.895 185.671 232.924L123.97 -63.577C95.3405 -56.5729 109.533 -60.5848 81.4287 -51.5488L184.643 233.227C184.518 233.272 184.385 233.323 184.259 233.382C184.126 233.427 184 233.493 183.875 233.545L50.1309 -38.2424C24.2663 -24.3597 36.9362 -31.7555 12.1212 -16.0848L182.951 234.077C182.84 234.166 182.729 234.239 182.618 234.321C182.514 234.409 182.404 234.498 182.3 234.579L-14.734 4.46216C-36.2965 24.2481 -25.8737 13.9857 -45.9874 35.2494L181.546 235.348C181.457 235.444 181.369 235.547 181.273 235.665C181.199 235.769 181.11 235.88 181.021 235.998L-66.9733 61.8326C-83.014 86.4358 -75.4371 73.8534 -89.7259 99.6018L180.474 236.907C180.415 237.017 180.349 237.15 180.297 237.269C180.245 237.394 180.186 237.527 180.134 237.653L-103.46 130.699C-112.878 158.62 -108.672 144.523 -116.078 173.049L179.831 238.68C179.809 238.82 179.779 238.953 179.757 239.086C179.735 239.219 179.72 239.352 179.698 239.493L-121.578 206.422C-123.737 235.695 -116.906 220.83 -117.002 250.191L179.661 240.579C179.661 240.712 179.676 240.852 179.683 240.985C179.698 241.125 179.713 241.266 179.728 241.399L-120.358 284.074C-115.177 313.095 -118.274 298.71 -111.037 327.266L179.957 242.448C179.994 242.573 180.046 242.706 180.09 242.839C180.134 242.958 180.193 243.083 180.238 243.216L-99.7347 359.339C-87.4492 386.114 -94.0502 372.963 -79.9463 398.733L180.711 244.169C180.792 244.288 180.873 244.413 180.933 244.524C181.021 244.635 181.095 244.753 181.176 244.856L-61.0819 426.853C-42.6684 449.587 -52.2706 438.564 -32.29 459.953L181.871 245.662C181.967 245.75 182.071 245.847 182.174 245.935C182.278 246.024 182.381 246.113 182.485 246.209L-7.09062 482.495C16.4308 500.02 4.38918 491.693 29.1007 507.519L183.372 246.814C183.49 246.888 183.616 246.947 183.742 247.021C183.86 247.08 183.985 247.139 184.111 247.199L59.2823 523.19C86.6105 534.368 72.7727 529.271 100.774 538.454L185.116 247.568C185.257 247.612 185.375 247.642 185.508 247.671C185.656 247.701 185.789 247.731 185.922 247.753L133.971 546.094C162.926 550.054 148.371 548.576 177.643 550.505L186.987 247.864C187.12 247.864 187.26 247.864 187.386 247.864C187.534 247.864 187.667 247.849 187.8 247.841L211.447 549.692C240.69 546.36 226.135 548.547 255.089 543.124L188.857 247.679C188.997 247.642 189.123 247.612 189.256 247.575C189.382 247.538 189.515 247.494 189.648 247.457L287.88 533.851C315.349 523.33 301.807 529.078 328.499 516.6L190.631 247.036C190.749 246.977 190.875 246.91 190.993 246.844C191.111 246.77 191.222 246.704 191.341 246.637L357.772 499.532C381.655 482.576 370.035 491.464 392.647 472.875L192.198 245.972C192.301 245.891 192.405 245.795 192.494 245.699C192.597 245.588 192.693 245.499 192.797 245.396L416.716 449.151C435.676 426.794 426.599 438.298 443.933 414.641L193.44 244.554C193.521 244.435 193.595 244.317 193.669 244.214C193.728 244.095 193.802 243.97 193.869 243.852L461.452 385.553C474.314 359.058 468.356 372.534 479.311 345.116L194.297 242.869C194.342 242.736 194.386 242.61 194.43 242.47C194.453 242.344 194.504 242.211 194.534 242.078L489.017 312.556C494.834 283.749 492.454 298.2 496.18 269.186L194.711 241.029C194.711 240.889 194.733 240.756 194.733 240.601L194.748 240.608Z" fill="url(#paint0_radial_488_19017)" fill-opacity="0.2"/>
  </g>
  <defs>
    <filter id="filter0_f_488_19017" x="-138.2" y="-86.1553" width="651.888" height="652.86" filterUnits="userSpaceOnUse" color-interpolation-filters="sRGB">
      <feFlood flood-opacity="0" result="BackgroundImageFix"/>
      <feBlend mode="normal" in="SourceGraphic" in2="BackgroundImageFix" result="shape"/>
      <feGaussianBlur stdDeviation="8.1" result="effect1_foregroundBlur_488_19017"/>
    </filter>
    <radialGradient id="paint0_radial_488_19017" cx="0" cy="0" r="1" gradientUnits="userSpaceOnUse" gradientTransform="translate(185.264 229.097) scale(300.995 300.846)">
      <stop stop-color="#CBDBFF"/>
      <stop offset="0.09" stop-color="#CBDBFF" stop-opacity="0.98"/>
      <stop offset="0.22" stop-color="#CBDBFF" stop-opacity="0.91"/>
      <stop offset="0.36" stop-color="#CBDBFF" stop-opacity="0.8"/>
      <stop offset="0.52" stop-color="#CBDBFF" stop-opacity="0.65"/>
      <stop offset="0.69" stop-color="#CBDBFF" stop-opacity="0.45"/>
      <stop offset="0.86" stop-color="#CBDBFF" stop-opacity="0.21"/>
      <stop offset="1" stop-color="#CBDBFF" stop-opacity="0"/>
    </radialGradient>
  </defs>
</svg>
