<svg width="409" height="431" viewBox="0 0 409 431" fill="none" xmlns="http://www.w3.org/2000/svg">
<path d="M116.699 56.8828L121.591 65.4206C123.668 69.0418 127.12 72.1634 131.906 74.7236C142.359 80.3189 155.71 81.3252 155.788 81.4019L150.897 72.8641C150.818 72.7875 137.467 71.7811 127.014 66.1859C122.23 63.6224 118.776 60.504 116.699 56.8828Z" fill="url(#paint0_linear_488_19107)"/>
<path d="M129.727 8.53779L124.835 0C124.999 0.28282 125.155 0.573662 125.301 0.875741C126.936 4.20211 127.482 8.12591 126.927 12.5468C126.233 18.0712 123.801 24.385 119.7 31.3124C114.606 39.9218 113.073 47.4676 115.151 53.7303C115.516 54.8348 115.994 55.8999 116.582 56.9239L121.474 65.4617C120.885 64.4377 120.409 63.3694 120.043 62.268C117.965 56.0054 119.497 48.4596 124.592 39.8502C128.693 32.9228 131.121 26.6074 131.818 21.0846C132.372 16.6669 131.824 12.7382 130.192 9.41352C130.045 9.11466 129.887 8.81897 129.727 8.53779Z" fill="url(#paint1_linear_488_19107)"/>
<path d="M304.735 242.44C302.042 238.843 299.728 237.894 297.823 239.595L301.78 236.06C303.669 234.372 305.96 235.295 308.624 238.817L304.735 242.443L304.735 242.44Z" fill="url(#paint2_linear_488_19107)"/>
<path d="M319.275 216.795L320.983 210.423L312.822 208.236L311.114 214.609L319.275 216.795Z" fill="url(#paint3_linear_488_19107)"/>
<path d="M353.435 220.577L349.184 219.438L347.286 226.521L351.537 227.66L353.435 220.577Z" fill="url(#paint4_linear_488_19107)"/>
<path d="M275.042 271.046L275.728 274.831L280.055 274.047L279.369 270.262L275.042 271.046Z" fill="url(#paint5_linear_488_19107)"/>
<path d="M333.4 182.407L329.44 176.027C329.852 176.691 329.994 177.466 329.865 178.353C329.272 182.391 323.111 187.375 323.049 187.423L327.01 193.803C327.071 193.752 333.232 188.771 333.825 184.734C333.954 183.846 333.815 183.071 333.4 182.407Z" fill="url(#paint6_linear_488_19107)"/>
<path d="M409 274.967L409 270.719L403.157 270.719L403.157 274.967L409 274.967Z" fill="url(#paint7_linear_488_19107)"/>
<path d="M377.837 244.597L378.618 241.68L373.754 240.376L372.972 243.293L377.837 244.597Z" fill="url(#paint8_linear_488_19107)"/>
<path d="M360.73 278.497C360.73 278.497 363.846 274.56 366.296 272.317C366.296 272.317 361.195 270.021 354.28 276.71C354.28 276.71 350.213 280.394 349.53 283.634C349.53 283.634 357.322 277.008 360.729 278.495L360.73 278.497Z" fill="url(#paint9_linear_488_19107)"/>
<path d="M290.672 67.9482L289.611 73.7964L296.303 75.0074L297.364 69.1592L290.672 67.9482Z" fill="url(#paint10_linear_488_19107)"/>
<path d="M293.795 183.33C293.589 181.885 294.533 179.822 296.252 176.755C296.755 175.855 297.109 175.053 297.337 174.334L293.662 168.026C293.441 168.781 293.076 169.63 292.533 170.595C290.916 173.478 289.982 175.476 290.048 176.903L293.792 183.334L293.795 183.33Z" fill="url(#paint11_linear_488_19107)"/>
<path d="M349.609 125.699L350.507 127.963L352.774 127.066L351.876 124.802L349.609 125.699Z" fill="url(#paint12_linear_488_19107)"/>
<path d="M347.147 73.7373L348.842 67.3384L340.033 65.0105L338.337 71.4094L347.147 73.7373Z" fill="url(#paint13_linear_488_19107)"/>
<path d="M351.697 84.866L354.828 86.9566L356.921 83.8301L353.79 81.7394L351.697 84.866Z" fill="url(#paint14_linear_488_19107)"/>
<path d="M324.083 121.134L325.483 122.615C325.339 122.46 325.143 122.37 324.901 122.345C323.801 122.222 322.065 123.49 322.047 123.501L320.647 122.019C320.647 122.019 322.398 120.737 323.501 120.863C323.743 120.892 323.935 120.982 324.083 121.134Z" fill="url(#paint15_linear_488_19107)"/>
<path d="M306.796 88.3694C304.109 90.951 302.141 93.5798 302.516 96.4503C302.59 97.0169 303.692 105.424 303.692 105.424C302.416 97.1559 321.146 90.8397 319.961 81.857L318.785 72.883C319.561 78.7633 311.885 83.4824 306.793 88.3688" fill="url(#paint16_linear_488_19107)"/>
<path d="M376.44 317.158C374.565 313.937 372.474 311.405 369.597 311.092C369.028 311.03 360.598 310.118 360.598 310.118C368.934 310.829 370.654 330.52 379.663 331.487L388.661 332.461C382.764 331.828 379.989 323.256 376.441 317.154" fill="url(#paint17_linear_488_19107)"/>
<path d="M352.65 150.802C353.775 150.43 354.987 149.957 356.296 149.372C359.368 148.006 361.575 147.735 363.047 148.555C363.127 148.598 363.203 148.645 363.275 148.696L355.674 143.623C355.602 143.573 355.526 143.529 355.446 143.482C353.974 142.666 351.764 142.933 348.696 144.299C347.39 144.881 346.174 145.358 345.053 145.726L352.65 150.799L352.65 150.802Z" fill="url(#paint18_linear_488_19107)"/>
<path d="M355.675 143.62L363.276 148.692C364.998 149.841 365.378 152.526 365.747 155.127C366.109 157.682 366.485 160.323 368.153 161.439L360.552 156.366C358.884 155.254 358.512 152.612 358.146 150.058C357.777 147.457 357.397 144.772 355.675 143.623L355.675 143.62Z" fill="url(#paint19_linear_488_19107)"/>
<path d="M371.827 156.251L379.428 161.324C378.079 160.424 375.995 160.489 372.699 161.537C370.739 162.162 369.273 162.14 368.221 161.482C368.195 161.468 368.174 161.454 368.152 161.436L360.551 156.363C360.573 156.377 360.598 156.392 360.62 156.41C361.673 157.071 363.138 157.089 365.099 156.464C368.394 155.416 370.474 155.351 371.827 156.251Z" fill="url(#paint20_linear_488_19107)"/>
<path d="M42.3901 321.059C43.4643 325.422 42.7315 327.813 40.2078 328.208L45.4504 327.389C47.9538 326.999 48.6922 324.641 47.6572 320.348L42.3876 321.057L42.3901 321.059Z" fill="url(#paint21_linear_488_19107)"/>
<path d="M69.4929 200.03L75.5037 202.75L72.0207 210.447L66.0099 207.727L69.4929 200.03Z" fill="url(#paint22_linear_488_19107)"/>
<path d="M91.2225 285.486L89.4082 289.495L82.7272 286.473L84.5415 282.463L91.2225 285.486Z" fill="url(#paint23_linear_488_19107)"/>
<path d="M2.49203 314.112L0 311.182L3.3497 308.333L5.84172 311.263L2.49203 314.112Z" fill="url(#paint24_linear_488_19107)"/>
<path d="M101.719 213.033L105.004 215.726L101.3 220.245L98.0146 217.552L101.719 213.033Z" fill="url(#paint25_linear_488_19107)"/>
<path d="M100.092 250.038L102.844 251.283L100.768 255.871L98.0161 254.626L100.092 250.038Z" fill="url(#paint26_linear_488_19107)"/>
<path d="M40.5316 270.944C40.5316 270.944 45.5518 271.03 48.8394 270.558C48.8394 270.558 47.381 275.959 37.8246 277.065C37.8246 277.065 32.3967 277.875 29.4582 276.349C29.4582 276.349 39.5226 274.523 40.5318 270.946L40.5316 270.944Z" fill="url(#paint27_linear_488_19107)"/>
<path d="M169.465 430.789L164.269 427.901L167.576 421.958L172.771 424.845L169.465 430.789Z" fill="url(#paint28_linear_488_19107)"/>
<path d="M79.3919 377.799C80.3788 378.875 82.5729 379.453 86.0345 380.069C87.0491 380.25 87.8941 380.485 88.5946 380.764L91.1428 387.606C90.419 387.298 89.5307 387.042 88.4406 386.85C85.1857 386.273 83.0488 385.728 81.9865 384.773L79.3868 377.8L79.3919 377.799Z" fill="url(#paint29_linear_488_19107)"/>
<path d="M162.169 348.597L160.987 346.467L163.118 345.282L164.3 347.412L162.169 348.597Z" fill="url(#paint30_linear_488_19107)"/>
<path d="M200.793 383.442L206.817 386.188L203.032 394.477L197.008 391.731L200.793 383.442Z" fill="url(#paint31_linear_488_19107)"/>
<path d="M195.07 372.869L195.438 369.123L199.183 369.486L198.815 373.233L195.07 372.869Z" fill="url(#paint32_linear_488_19107)"/>
<path d="M149.516 371.23L149.258 369.208C149.287 369.418 149.233 369.627 149.099 369.83C148.496 370.759 146.415 371.297 146.395 371.305L146.653 373.326C146.653 373.326 148.755 372.786 149.357 371.852C149.488 371.646 149.54 371.441 149.516 371.23Z" fill="url(#paint33_linear_488_19107)"/>
<path d="M135.526 394.306C135.425 398.031 134.805 401.256 132.429 402.911C131.961 403.237 125 408.08 125 408.08C131.975 403.46 124.042 385.354 131.484 380.186L138.913 375.017C134.041 378.4 135.716 387.253 135.529 394.309" fill="url(#paint34_linear_488_19107)"/>
<path d="M121.486 362.853C122.487 362.218 123.622 361.581 124.905 360.94C127.908 359.43 129.517 357.896 129.816 356.237C129.833 356.148 129.845 356.059 129.851 355.971L128.956 365.065C128.949 365.153 128.934 365.24 128.92 365.331C128.618 366.987 127.01 368.527 124.009 370.034C122.731 370.675 121.591 371.312 120.595 371.946L121.489 362.855L121.486 362.853Z" fill="url(#paint35_linear_488_19107)"/>
<path d="M128.959 365.068L129.855 355.974C130.058 353.913 128.223 351.918 126.445 349.983C124.699 348.084 122.895 346.118 123.089 344.121L122.193 353.215C121.997 355.21 123.803 357.173 125.547 359.075C127.324 361.009 129.16 363.005 128.956 365.065L128.959 365.068Z" fill="url(#paint36_linear_488_19107)"/>
<path d="M129.431 344.567L130.327 335.473C130.167 337.087 128.795 338.657 125.896 340.541C124.169 341.661 123.257 342.808 123.098 344.039C123.093 344.068 123.091 344.094 123.091 344.122L122.195 353.216C122.198 353.19 122.202 353.161 122.202 353.133C122.358 351.9 123.273 350.755 125 349.635C127.9 347.751 129.269 346.183 129.431 344.567Z" fill="url(#paint37_linear_488_19107)"/>
<path d="M46.2924 162.166C42.6875 161.223 39.6879 159.887 38.6151 157.198C38.4032 156.668 35.2659 148.79 35.2659 148.79C38.1837 156.631 57.6166 153.012 60.9616 161.433L64.3108 169.841C62.1209 164.329 53.1185 163.952 46.2895 162.169" fill="url(#paint38_linear_488_19107)"/>
<path d="M357.62 383.875C354.942 384.95 352.462 385.503 350.558 384.323C350.182 384.091 344.607 380.634 344.607 380.634C350.03 384.168 360.453 372.956 366.41 376.652L372.362 380.342C368.464 377.922 362.689 381.836 357.62 383.875Z" fill="#C27E00"/>
<path d="M344.605 380.632C341.682 378.727 342.186 373.825 342.511 370.683C342.897 366.941 343.988 363.928 345.364 361.506L351.403 365.044C349.986 367.492 348.857 370.553 348.464 374.372C348.14 377.514 347.633 382.417 350.558 384.321L344.607 380.631L344.605 380.632Z" fill="url(#paint39_linear_488_19107)"/>
<path d="M361.78 397.665C363.832 397.006 365.878 396.01 367.498 394.489C373.084 389.257 371.065 379.36 366.409 376.649L371.35 379.482C376.005 382.191 377.301 391.898 371.716 397.132C370.145 398.604 368.179 399.584 366.192 400.244L361.78 397.665Z" fill="url(#paint40_linear_488_19107)"/>
<path d="M92.1612 87.0345C92.1612 87.0345 98.408 78.0366 86.3386 75.7647L89.0004 70.2194C89.0004 70.2194 96.5262 72.2247 97.7513 78.752C98.9763 85.2793 93.9003 88.4748 93.9003 88.4748L92.159 87.0336L92.1612 87.0345Z" fill="#5634B4"/>
<path d="M24.9368 188.7C24.9368 188.7 17.2696 192.691 24.8632 198.709L20.9684 201.607C20.9684 201.607 16.4491 197.442 17.9894 192.432C19.5317 187.423 24.2504 187.056 24.2504 187.056L24.9368 188.7Z" fill="#0088FF"/>
<path d="M66.0182 204.816C66.0182 204.816 60.0983 198.361 56.0446 195.484L56.0617 195.466C55.8558 195.333 55.6482 195.197 55.4383 195.063C55.1351 194.86 54.842 194.672 54.5622 194.507C54.5582 194.507 54.5547 194.502 54.5486 194.501C45.7257 188.976 33.7198 183.491 26.7809 184.611C19.4377 185.796 17.9874 192.429 17.9874 192.429C23.4579 185.315 35.431 189.493 43.7869 193.727C44.2028 193.951 55.926 200.298 59.164 205.312C59.164 205.312 60.9789 205.837 66.0138 204.817L66.0182 204.816Z" fill="url(#paint41_linear_488_19107)"/>
<path d="M74.9455 365.312C74.3978 365.49 73.4144 365.523 73.144 365.505C64.4281 364.853 62.3236 357.687 64.5026 351.291L60.7875 354.25C55.2966 359.424 61.381 370.688 71.3711 370.743C72.6814 370.75 74.0191 370.726 75.3541 370.47L75.3538 370.473C82.6483 369.897 91.8081 361.587 91.3019 353.305C91.159 350.976 90.2466 348.838 89.0479 346.978L82.9529 346.499C84.2103 348.403 85.1472 350.607 85.3253 353.008C85.7215 358.407 81.7195 363.132 74.9488 365.316L74.9455 365.312Z" fill="url(#paint42_linear_488_19107)"/>
<path d="M59.8611 372.578C56.2269 372.066 52.9957 372.143 51.003 374.186C50.6108 374.588 44.7801 380.573 44.7801 380.573C50.4002 374.542 66.6985 385.216 72.9221 378.818L79.1449 372.432C75.0698 376.618 66.7421 373.544 59.8575 372.578" fill="url(#paint43_linear_488_19107)"/>
<path d="M44.7818 380.573C41.7535 383.824 43.8761 389.729 45.237 393.517C46.858 398.026 49.1251 401.417 51.5655 403.993L57.9406 397.768C55.4434 395.174 53.1144 391.735 51.4596 387.134C50.0985 383.35 47.9761 377.441 51.0045 374.19L44.7816 380.576L44.7818 380.573Z" fill="url(#paint44_linear_488_19107)"/>
<path d="M60.7878 354.247C63.5237 354.435 66.3515 355.039 68.8199 356.424C77.315 361.184 77.8482 374.043 72.9267 378.819L78.1646 373.803C83.0861 369.027 81.7187 356.627 73.2238 351.864C72.1031 351.235 70.9065 350.768 69.6799 350.426C67.2834 349.76 64.716 350.421 62.9356 352.156L60.7917 354.244L60.7878 354.247Z" fill="url(#paint45_linear_488_19107)"/>
<defs>
<linearGradient id="paint0_linear_488_19107" x1="120.376" y1="72.8181" x2="152.298" y2="65.6071" gradientUnits="userSpaceOnUse">
<stop stop-color="#FEB81E"/>
<stop offset="1" stop-color="#FF632A"/>
</linearGradient>
<linearGradient id="paint1_linear_488_19107" x1="111.039" y1="35.5469" x2="135.408" y2="30.0421" gradientUnits="userSpaceOnUse">
<stop stop-color="#FEB81E"/>
<stop offset="1" stop-color="#FFF52A"/>
</linearGradient>
<linearGradient id="paint2_linear_488_19107" x1="300.331" y1="242.104" x2="306.245" y2="236.19" gradientUnits="userSpaceOnUse">
<stop stop-color="#21C4EA"/>
<stop offset="1" stop-color="#2860F9"/>
</linearGradient>
<linearGradient id="paint3_linear_488_19107" x1="312.539" y1="216.036" x2="319.564" y2="209.01" gradientUnits="userSpaceOnUse">
<stop stop-color="#FEB81E"/>
<stop offset="1" stop-color="#FFF52A"/>
</linearGradient>
<linearGradient id="paint4_linear_488_19107" x1="347.358" y1="226.578" x2="353.402" y2="220.533" gradientUnits="userSpaceOnUse">
<stop stop-color="#FEB81E"/>
<stop offset="1" stop-color="#FF0DD8"/>
</linearGradient>
<linearGradient id="paint5_linear_488_19107" x1="275.548" y1="274.61" x2="279.654" y2="270.503" gradientUnits="userSpaceOnUse">
<stop stop-color="#21C4EA"/>
<stop offset="1" stop-color="#28F4F9"/>
</linearGradient>
<linearGradient id="paint6_linear_488_19107" x1="323.222" y1="190.025" x2="333.327" y2="179.919" gradientUnits="userSpaceOnUse">
<stop stop-color="#21C4EA"/>
<stop offset="1" stop-color="#28F4F9"/>
</linearGradient>
<linearGradient id="paint7_linear_488_19107" x1="403.559" y1="275.376" x2="408.604" y2="270.33" gradientUnits="userSpaceOnUse">
<stop stop-color="#21C4EA"/>
<stop offset="1" stop-color="#2860F9"/>
</linearGradient>
<linearGradient id="paint8_linear_488_19107" x1="373.979" y1="244.312" x2="377.609" y2="240.682" gradientUnits="userSpaceOnUse">
<stop stop-color="#21C4EA"/>
<stop offset="1" stop-color="#28F4F9"/>
</linearGradient>
<linearGradient id="paint9_linear_488_19107" x1="13.3655" y1="1025.19" x2="32.6328" y2="1028.25" gradientUnits="userSpaceOnUse">
<stop stop-color="#8C00D4"/>
<stop offset="0.11" stop-color="#AE17DE"/>
<stop offset="0.22" stop-color="#C829E7"/>
<stop offset="0.33" stop-color="#DB36ED"/>
<stop offset="0.45" stop-color="#E63EF0"/>
<stop offset="0.57" stop-color="#EA41F2"/>
<stop offset="0.9" stop-color="#9400E3"/>
</linearGradient>
<linearGradient id="paint10_linear_488_19107" x1="296.557" y1="74.6751" x2="290.213" y2="68.3234" gradientUnits="userSpaceOnUse">
<stop stop-color="#FEB81E"/>
<stop offset="1" stop-color="#FF0DD8"/>
</linearGradient>
<linearGradient id="paint11_linear_488_19107" x1="297.042" y1="181.516" x2="290.362" y2="170.015" gradientUnits="userSpaceOnUse">
<stop stop-color="#FEB81E"/>
<stop offset="1" stop-color="#FF0DD8"/>
</linearGradient>
<linearGradient id="paint12_linear_488_19107" x1="351.957" y1="127.688" x2="350.564" y2="125.291" gradientUnits="userSpaceOnUse">
<stop stop-color="#FEB81E"/>
<stop offset="1" stop-color="#FF0DD8"/>
</linearGradient>
<linearGradient id="paint13_linear_488_19107" x1="346.381" y1="74.2682" x2="340.797" y2="64.6547" gradientUnits="userSpaceOnUse">
<stop stop-color="#21C4EA"/>
<stop offset="1" stop-color="#2860F9"/>
</linearGradient>
<linearGradient id="paint14_linear_488_19107" x1="355.457" y1="86.6001" x2="352.93" y2="82.2496" gradientUnits="userSpaceOnUse">
<stop stop-color="#FEB81E"/>
<stop offset="1" stop-color="#FF0DD8"/>
</linearGradient>
<linearGradient id="paint15_linear_488_19107" x1="323.772" y1="123.68" x2="322.275" y2="121.102" gradientUnits="userSpaceOnUse">
<stop stop-color="#FEB81E"/>
<stop offset="1" stop-color="#FFF52A"/>
</linearGradient>
<linearGradient id="paint16_linear_488_19107" x1="325.233" y1="72.8105" x2="296.376" y2="106.647" gradientUnits="userSpaceOnUse">
<stop stop-color="#FFCB11"/>
<stop offset="0.11" stop-color="#AE17DE"/>
<stop offset="0.22" stop-color="#C829E7"/>
<stop offset="0.33" stop-color="#DB36ED"/>
<stop offset="0.45" stop-color="#E63EF0"/>
<stop offset="0.57" stop-color="#EA41F2"/>
<stop offset="0.9" stop-color="#9400E3"/>
</linearGradient>
<linearGradient id="paint17_linear_488_19107" x1="387.211" y1="338.745" x2="361.136" y2="302.72" gradientUnits="userSpaceOnUse">
<stop stop-color="#FFCB11"/>
<stop offset="0.11" stop-color="#AE17DE"/>
<stop offset="0.22" stop-color="#C829E7"/>
<stop offset="0.33" stop-color="#DB36ED"/>
<stop offset="0.45" stop-color="#E63EF0"/>
<stop offset="0.57" stop-color="#EA41F2"/>
<stop offset="0.9" stop-color="#9400E3"/>
</linearGradient>
<linearGradient id="paint18_linear_488_19107" x1="57.1766" y1="259.389" x2="45.3005" y2="263.854" gradientUnits="userSpaceOnUse">
<stop stop-color="#21C4EA"/>
<stop offset="1" stop-color="#28F4F9"/>
</linearGradient>
<linearGradient id="paint19_linear_488_19107" x1="64.2064" y1="276.235" x2="48.5469" y2="265.253" gradientUnits="userSpaceOnUse">
<stop stop-color="#21C4EA"/>
<stop offset="1" stop-color="#2860F9"/>
</linearGradient>
<linearGradient id="paint20_linear_488_19107" x1="66.9444" y1="273.36" x2="55.8836" y2="277.519" gradientUnits="userSpaceOnUse">
<stop stop-color="#21C4EA"/>
<stop offset="1" stop-color="#28F4F9"/>
</linearGradient>
<linearGradient id="paint21_linear_488_19107" x1="39.8575" y1="324.678" x2="48.1807" y2="323.854" gradientUnits="userSpaceOnUse">
<stop stop-color="#21C4EA"/>
<stop offset="1" stop-color="#2860F9"/>
</linearGradient>
<linearGradient id="paint22_linear_488_19107" x1="65.8096" y1="205.721" x2="75.6969" y2="204.742" gradientUnits="userSpaceOnUse">
<stop stop-color="#FEB81E"/>
<stop offset="1" stop-color="#FFF52A"/>
</linearGradient>
<linearGradient id="paint23_linear_488_19107" x1="82.7284" y1="286.381" x2="91.2354" y2="285.539" gradientUnits="userSpaceOnUse">
<stop stop-color="#FEB81E"/>
<stop offset="1" stop-color="#FF0DD8"/>
</linearGradient>
<linearGradient id="paint24_linear_488_19107" x1="0.0575555" y1="311.462" x2="5.83639" y2="310.89" gradientUnits="userSpaceOnUse">
<stop stop-color="#21C4EA"/>
<stop offset="1" stop-color="#28F4F9"/>
</linearGradient>
<linearGradient id="paint25_linear_488_19107" x1="97.953" y1="216.982" x2="105.054" y2="216.279" gradientUnits="userSpaceOnUse">
<stop stop-color="#21C4EA"/>
<stop offset="1" stop-color="#2860F9"/>
</linearGradient>
<linearGradient id="paint26_linear_488_19107" x1="97.867" y1="253.201" x2="102.975" y2="252.696" gradientUnits="userSpaceOnUse">
<stop stop-color="#21C4EA"/>
<stop offset="1" stop-color="#28F4F9"/>
</linearGradient>
<linearGradient id="paint27_linear_488_19107" x1="-757.142" y1="66.1752" x2="-747.29" y2="49.3379" gradientUnits="userSpaceOnUse">
<stop stop-color="#8C00D4"/>
<stop offset="0.11" stop-color="#AE17DE"/>
<stop offset="0.22" stop-color="#C829E7"/>
<stop offset="0.33" stop-color="#DB36ED"/>
<stop offset="0.45" stop-color="#E63EF0"/>
<stop offset="0.57" stop-color="#EA41F2"/>
<stop offset="0.9" stop-color="#9400E3"/>
</linearGradient>
<linearGradient id="paint28_linear_488_19107" x1="167.994" y1="421.972" x2="168.884" y2="430.905" gradientUnits="userSpaceOnUse">
<stop stop-color="#FEB81E"/>
<stop offset="1" stop-color="#FF0DD8"/>
</linearGradient>
<linearGradient id="paint29_linear_488_19107" x1="82.8531" y1="376.439" x2="87.5123" y2="388.896" gradientUnits="userSpaceOnUse">
<stop stop-color="#FEB81E"/>
<stop offset="1" stop-color="#FF0DD8"/>
</linearGradient>
<linearGradient id="paint30_linear_488_19107" x1="162.119" y1="345.52" x2="163.09" y2="348.116" gradientUnits="userSpaceOnUse">
<stop stop-color="#FEB81E"/>
<stop offset="1" stop-color="#FF0DD8"/>
</linearGradient>
<linearGradient id="paint31_linear_488_19107" x1="199.897" y1="383.698" x2="203.792" y2="394.111" gradientUnits="userSpaceOnUse">
<stop stop-color="#21C4EA"/>
<stop offset="1" stop-color="#2860F9"/>
</linearGradient>
<linearGradient id="paint32_linear_488_19107" x1="196.113" y1="368.862" x2="197.875" y2="373.574" gradientUnits="userSpaceOnUse">
<stop stop-color="#FEB81E"/>
<stop offset="1" stop-color="#FF0DD8"/>
</linearGradient>
<linearGradient id="paint33_linear_488_19107" x1="147.35" y1="369.856" x2="148.395" y2="372.649" gradientUnits="userSpaceOnUse">
<stop stop-color="#FEB81E"/>
<stop offset="1" stop-color="#FFF52A"/>
</linearGradient>
<linearGradient id="paint34_linear_488_19107" x1="134.627" y1="370.198" x2="129.019" y2="414.315" gradientUnits="userSpaceOnUse">
<stop stop-color="#FFCB11"/>
<stop offset="0.11" stop-color="#AE17DE"/>
<stop offset="0.22" stop-color="#C829E7"/>
<stop offset="0.33" stop-color="#DB36ED"/>
<stop offset="0.45" stop-color="#E63EF0"/>
<stop offset="0.57" stop-color="#EA41F2"/>
<stop offset="0.9" stop-color="#9400E3"/>
</linearGradient>
<linearGradient id="paint35_linear_488_19107" x1="-149.816" y1="522.51" x2="-160.798" y2="528.864" gradientUnits="userSpaceOnUse">
<stop stop-color="#21C4EA"/>
<stop offset="1" stop-color="#28F4F9"/>
</linearGradient>
<linearGradient id="paint36_linear_488_19107" x1="-158.387" y1="506.394" x2="-159.822" y2="525.467" gradientUnits="userSpaceOnUse">
<stop stop-color="#21C4EA"/>
<stop offset="1" stop-color="#2860F9"/>
</linearGradient>
<linearGradient id="paint37_linear_488_19107" x1="-154.429" y1="506.098" x2="-164.657" y2="512.015" gradientUnits="userSpaceOnUse">
<stop stop-color="#21C4EA"/>
<stop offset="1" stop-color="#28F4F9"/>
</linearGradient>
<linearGradient id="paint38_linear_488_19107" x1="69.9759" y1="166.76" x2="28.2825" y2="151.29" gradientUnits="userSpaceOnUse">
<stop stop-color="#FFCB11"/>
<stop offset="0.11" stop-color="#AE17DE"/>
<stop offset="0.22" stop-color="#C829E7"/>
<stop offset="0.33" stop-color="#DB36ED"/>
<stop offset="0.45" stop-color="#E63EF0"/>
<stop offset="0.57" stop-color="#EA41F2"/>
<stop offset="0.9" stop-color="#9400E3"/>
</linearGradient>
<linearGradient id="paint39_linear_488_19107" x1="349.811" y1="362.526" x2="345.134" y2="383.098" gradientUnits="userSpaceOnUse">
<stop stop-color="#FEB81E"/>
<stop offset="1" stop-color="#FFF52A"/>
</linearGradient>
<linearGradient id="paint40_linear_488_19107" x1="372.061" y1="377.947" x2="366.95" y2="400.428" gradientUnits="userSpaceOnUse">
<stop stop-color="#FEB81E"/>
<stop offset="1" stop-color="#FFF52A"/>
</linearGradient>
<linearGradient id="paint41_linear_488_19107" x1="64.8853" y1="212.746" x2="22.3015" y2="184.016" gradientUnits="userSpaceOnUse">
<stop stop-color="#219AEA"/>
<stop offset="1" stop-color="#28F4F9"/>
</linearGradient>
<linearGradient id="paint42_linear_488_19107" x1="82.5647" y1="367.703" x2="69.2277" y2="348" gradientUnits="userSpaceOnUse">
<stop stop-color="#29ABE2"/>
<stop offset="1" stop-color="#294FE2"/>
</linearGradient>
<linearGradient id="paint43_linear_488_19107" x1="66.7284" y1="383.269" x2="57.5611" y2="369.721" gradientUnits="userSpaceOnUse">
<stop stop-color="#29ABE2"/>
<stop offset="1" stop-color="#294FE2"/>
</linearGradient>
<linearGradient id="paint44_linear_488_19107" x1="57.9512" y1="399.581" x2="43.9393" y2="378.881" gradientUnits="userSpaceOnUse">
<stop offset="0.13" stop-color="#29D1E2"/>
<stop offset="0.97" stop-color="#29ABE2"/>
</linearGradient>
<linearGradient id="paint45_linear_488_19107" x1="79.7294" y1="374.124" x2="64.1506" y2="351.109" gradientUnits="userSpaceOnUse">
<stop offset="0.13" stop-color="#29D1E2"/>
<stop offset="0.97" stop-color="#29ABE2"/>
</linearGradient>
</defs>
</svg>
