<svg width="33" height="34" viewBox="0 0 33 34" fill="none" xmlns="http://www.w3.org/2000/svg">
<g filter="url(#filter0_df_422_25404)">
<path d="M13 20.3334C14.3472 22.6667 14.6667 32 14.6667 32C15 28.3334 15.3333 22.3334 17 20.3334C18.6667 18.3334 28 18 28 18C28 18 18.6667 16.6667 17.3333 15.6667C16 14.6667 14.6667 5.33337 14.6667 5.33337C14.6667 5.33337 14 14 13 15.3334C12 16.6667 2 18 2 18C2 18 11.6528 18 13 20.3334Z" fill="url(#paint0_radial_422_25404)"/>
</g>
<g filter="url(#filter1_df_422_25404)">
<path d="M23.359 9.5C24.0153 10.6667 24.1709 15.3333 24.1709 15.3333C24.3333 13.5 24.4957 10.5 25.3077 9.5C26.1197 8.5 30.6667 8.33333 30.6667 8.33333C30.6667 8.33333 26.1197 7.66667 25.4701 7.16667C24.8205 6.66667 24.1709 2 24.1709 2C24.1709 2 23.8462 6.33333 23.359 7C22.8718 7.66667 18 8.33333 18 8.33333C18 8.33333 22.7027 8.33333 23.359 9.5Z" fill="url(#paint1_radial_422_25404)"/>
</g>
<g filter="url(#filter2_df_422_25404)">
<path d="M4.53846 8.25C4.84934 7.66667 4.92308 5.33333 4.92308 5.33333C5 6.25 5.07692 7.75 5.46154 8.25C5.84615 8.75 8 8.83333 8 8.83333C8 8.83333 5.84615 9.16667 5.53846 9.41667C5.23077 9.66667 4.92308 12 4.92308 12C4.92308 12 4.76923 9.83333 4.53846 9.5C4.30769 9.16667 2 8.83333 2 8.83333C2 8.83333 4.22758 8.83333 4.53846 8.25Z" fill="url(#paint2_radial_422_25404)"/>
</g>
<defs>
<filter id="filter0_df_422_25404" x="0" y="3.33337" width="30" height="30.6666" filterUnits="userSpaceOnUse" color-interpolation-filters="sRGB">
<feFlood flood-opacity="0" result="BackgroundImageFix"/>
<feColorMatrix in="SourceAlpha" type="matrix" values="0 0 0 0 0 0 0 0 0 0 0 0 0 0 0 0 0 0 127 0" result="hardAlpha"/>
<feOffset/>
<feGaussianBlur stdDeviation="1"/>
<feComposite in2="hardAlpha" operator="out"/>
<feColorMatrix type="matrix" values="0 0 0 0 0.984314 0 0 0 0 0.988235 0 0 0 0 0.603922 0 0 0 0.43 0"/>
<feBlend mode="normal" in2="BackgroundImageFix" result="effect1_dropShadow_422_25404"/>
<feBlend mode="normal" in="SourceGraphic" in2="effect1_dropShadow_422_25404" result="shape"/>
<feGaussianBlur stdDeviation="0.0666667" result="effect2_foregroundBlur_422_25404"/>
</filter>
<filter id="filter1_df_422_25404" x="16" y="0" width="16.667" height="17.3334" filterUnits="userSpaceOnUse" color-interpolation-filters="sRGB">
<feFlood flood-opacity="0" result="BackgroundImageFix"/>
<feColorMatrix in="SourceAlpha" type="matrix" values="0 0 0 0 0 0 0 0 0 0 0 0 0 0 0 0 0 0 127 0" result="hardAlpha"/>
<feOffset/>
<feGaussianBlur stdDeviation="1"/>
<feComposite in2="hardAlpha" operator="out"/>
<feColorMatrix type="matrix" values="0 0 0 0 0.984314 0 0 0 0 0.988235 0 0 0 0 0.603922 0 0 0 0.43 0"/>
<feBlend mode="normal" in2="BackgroundImageFix" result="effect1_dropShadow_422_25404"/>
<feBlend mode="normal" in="SourceGraphic" in2="effect1_dropShadow_422_25404" result="shape"/>
<feGaussianBlur stdDeviation="0.0666667" result="effect2_foregroundBlur_422_25404"/>
</filter>
<filter id="filter2_df_422_25404" x="0" y="3.33337" width="10" height="10.6666" filterUnits="userSpaceOnUse" color-interpolation-filters="sRGB">
<feFlood flood-opacity="0" result="BackgroundImageFix"/>
<feColorMatrix in="SourceAlpha" type="matrix" values="0 0 0 0 0 0 0 0 0 0 0 0 0 0 0 0 0 0 127 0" result="hardAlpha"/>
<feOffset/>
<feGaussianBlur stdDeviation="1"/>
<feComposite in2="hardAlpha" operator="out"/>
<feColorMatrix type="matrix" values="0 0 0 0 0.984314 0 0 0 0 0.988235 0 0 0 0 0.603922 0 0 0 0.43 0"/>
<feBlend mode="normal" in2="BackgroundImageFix" result="effect1_dropShadow_422_25404"/>
<feBlend mode="normal" in="SourceGraphic" in2="effect1_dropShadow_422_25404" result="shape"/>
<feGaussianBlur stdDeviation="0.0666667" result="effect2_foregroundBlur_422_25404"/>
</filter>
<radialGradient id="paint0_radial_422_25404" cx="0" cy="0" r="1" gradientUnits="userSpaceOnUse" gradientTransform="translate(15 18.6667) rotate(90) scale(13.3333 13)">
<stop offset="0.350962" stop-color="#FBFC9A"/>
<stop offset="1" stop-color="#FFB84D"/>
</radialGradient>
<radialGradient id="paint1_radial_422_25404" cx="0" cy="0" r="1" gradientUnits="userSpaceOnUse" gradientTransform="translate(24.3333 8.66667) rotate(90) scale(6.66667 6.33333)">
<stop offset="0.350962" stop-color="#FBFC9A"/>
<stop offset="1" stop-color="#FFB84D"/>
</radialGradient>
<radialGradient id="paint2_radial_422_25404" cx="0" cy="0" r="1" gradientUnits="userSpaceOnUse" gradientTransform="translate(5 8.66667) rotate(-90) scale(3.33333 3)">
<stop offset="0.350962" stop-color="#FBFC9A"/>
<stop offset="1" stop-color="#FFB84D"/>
</radialGradient>
</defs>
</svg>
